<svg width="927" height="998" viewBox="0 0 927 998" fill="none" xmlns="http://www.w3.org/2000/svg">
<g filter="url(#filter0_f_482_296)">
<ellipse cx="569.201" cy="676.759" rx="198.714" ry="107.054" transform="rotate(150 569.201 676.759)" fill="#313682"/>
</g>
<path d="M579.415 210.343C630.657 234.285 663.128 285.88 674.147 350.035C685.164 414.189 674.717 490.853 640.165 564.808C605.612 638.763 553.514 695.967 497.239 728.681C440.962 761.395 380.553 769.596 329.31 745.654C278.068 721.713 245.598 670.118 234.579 605.963C223.562 541.809 234.008 465.145 268.561 391.19C303.114 317.235 355.212 260.031 411.487 227.318C467.764 194.603 528.172 186.402 579.415 210.343Z" stroke="black"/>
<path d="M623.777 231.07C675.02 255.012 707.491 306.607 718.509 370.762C729.527 434.916 719.08 511.58 684.527 585.535C649.975 659.49 597.877 716.694 541.601 749.407C485.324 782.122 424.916 790.323 373.673 766.381C322.431 742.44 289.96 690.845 278.942 626.69C267.924 562.536 278.371 485.872 312.924 411.917C347.477 337.962 399.575 280.758 455.85 248.045C512.127 215.33 572.535 207.129 623.777 231.07Z" stroke="black"/>
<path d="M668.14 251.797C719.383 275.738 751.854 327.334 762.872 391.489C773.89 455.643 763.443 532.307 728.89 606.262C694.337 680.217 642.239 737.421 585.964 770.134C529.687 802.849 469.279 811.05 418.036 787.108C366.793 763.167 334.323 711.572 323.305 647.417C312.287 583.263 322.734 506.599 357.287 432.644C391.84 358.689 443.938 301.485 500.213 268.771C556.49 236.057 616.897 227.856 668.14 251.797Z" stroke="black"/>
<g clip-path="url(#clip0_482_296)">
<path d="M653.582 352.747H650.831V277.336C650.831 271.605 649.703 265.929 647.511 260.634C645.318 255.339 642.105 250.527 638.055 246.474C634.004 242.421 629.195 239.207 623.903 237.013C618.61 234.82 612.938 233.691 607.209 233.691H447.529C441.801 233.691 436.128 234.82 430.836 237.013C425.543 239.206 420.734 242.421 416.684 246.474C412.633 250.527 409.42 255.339 407.228 260.634C405.036 265.929 403.907 271.605 403.907 277.336V691.045C403.907 702.621 408.503 713.722 416.684 721.907C424.864 730.092 435.96 734.691 447.529 734.691H607.209C618.778 734.691 629.874 730.092 638.055 721.907C646.235 713.722 650.831 702.621 650.831 691.045V406.426H653.582L653.582 352.747Z" fill="#3F3D56"/>
<path d="M608.969 245.046H588.126C589.084 247.397 589.45 249.948 589.191 252.474C588.932 255.001 588.056 257.424 586.641 259.532C585.225 261.64 583.313 263.366 581.073 264.561C578.833 265.755 576.334 266.379 573.796 266.38H482.318C479.78 266.379 477.281 265.755 475.041 264.561C472.801 263.366 470.889 261.64 469.473 259.532C468.057 257.424 467.182 255.001 466.923 252.474C466.664 249.948 467.03 247.397 467.988 245.046H448.52C439.88 245.046 431.594 248.48 425.485 254.592C419.376 260.705 415.944 268.995 415.944 277.64V690.742C415.944 695.022 416.786 699.26 418.424 703.215C420.061 707.169 422.46 710.762 425.485 713.789C428.51 716.816 432.101 719.217 436.054 720.855C440.006 722.493 444.242 723.336 448.52 723.336H608.969C613.247 723.336 617.484 722.493 621.436 720.855C625.388 719.217 628.979 716.816 632.004 713.789C635.029 710.762 637.429 707.169 639.066 703.215C640.703 699.26 641.546 695.022 641.546 690.742V277.64C641.546 273.36 640.703 269.121 639.066 265.167C637.429 261.212 635.029 257.619 632.004 254.592C628.979 251.566 625.388 249.165 621.436 247.527C617.484 245.889 613.247 245.046 608.969 245.046Z" fill="white"/>
<path d="M621.134 326.272H436.355V642.11H621.134V326.272Z" fill="#E6E6E6"/>
<path d="M374.299 393.379C382.769 400.442 365.829 422.414 365.829 422.414C365.829 422.414 406.062 423.984 402.886 423.984C399.709 423.984 397.062 390.633 397.062 390.633C397.062 390.633 365.829 386.317 374.299 393.379Z" fill="#FFB8B8"/>
<path d="M357.941 482.755L394.406 495.835L414.359 504.095C414.359 504.095 427.431 539.892 433.623 555.725C439.815 571.558 419.863 597.029 419.863 597.029C419.863 597.029 421.927 604.601 419.863 608.043C418.796 609.8 417.875 611.642 417.111 613.55C416.423 614.927 408.854 614.239 400.598 613.55C392.342 612.862 399.91 599.782 399.91 599.782C399.91 599.782 406.79 572.247 407.478 571.558C408.121 570.915 409.964 566.07 407.963 564.31C406.1 562.769 404.57 560.865 403.465 558.714C402.539 556.861 401.341 555.157 399.91 553.66C399.91 553.66 378.104 521.484 367.334 514.166C356.565 506.849 331.557 515.543 331.557 515.543C331.557 515.543 343.492 533.696 343.492 537.827C343.492 541.957 344.18 544.022 346.245 545.399C348.309 546.776 347.621 549.53 347.621 552.283C347.621 555.037 349.685 560.544 353.125 563.297C356.565 566.051 357.253 568.805 356.565 574.312C355.877 579.819 337.3 577.065 337.3 577.065L328.356 559.855C328.356 559.855 314.596 537.827 305.651 514.421C301.179 502.719 305.823 494.802 311.585 489.811C317.138 485.099 324.282 482.694 331.552 483.089L363.894 484.565L340.74 477.936L357.941 482.755Z" fill="#2F2E41"/>
<path d="M478.344 421.488L517.561 403.589C517.561 403.589 531.322 380.184 523.066 377.43C514.809 374.677 507.929 398.082 507.929 398.082L479.72 403.589L478.344 421.488Z" fill="#FFB8B8"/>
<path d="M322.852 433.879C322.852 433.879 302.899 451.777 302.211 453.842C301.523 455.908 289.139 461.415 283.634 451.777C278.13 442.14 296.019 442.828 296.019 442.828L308.403 426.995L322.852 433.879Z" fill="#FFB8B8"/>
<path d="M302.66 423.298L323.989 439.131L359.078 426.74C352.556 447.17 357.666 468.807 336.244 481.34L417.43 508.876C410.245 479.93 421.592 455.967 431.32 426.74C446.728 418.795 466.054 420.674 487.05 426.74V398.516L401.735 403.334L388.533 410.435L372.838 406.088C350.119 402.403 321.733 410.457 302.66 423.298Z" fill="#2B3078"/>
<path d="M355.189 573.623C357.253 575 360.693 588.08 361.381 592.898C362.069 597.717 355.877 599.782 352.437 600.471C348.996 601.159 349.684 603.224 347.62 605.29C345.556 607.355 337.988 608.043 327.668 605.978C317.348 603.913 332.484 590.833 333.86 590.145C335.236 589.457 339.364 573.623 339.364 573.623C339.364 573.623 353.125 572.247 355.189 573.623Z" fill="#2F2E41"/>
<path d="M412.294 611.485L417.798 625.942L423.003 633.752C424.42 635.835 425.376 638.197 425.807 640.679C426.237 643.162 426.133 645.707 425.501 648.146C424.625 651.374 422.808 654.424 419.174 655.543C410.23 658.296 404.726 641.086 404.726 641.086C404.726 641.086 399.91 631.449 396.47 622.5C393.03 613.55 399.222 608.732 399.222 608.732L412.294 611.485Z" fill="#2F2E41"/>
<path d="M385.906 402.113C395.024 402.113 402.416 394.717 402.416 385.594C402.416 376.471 395.024 369.075 385.906 369.075C376.788 369.075 369.396 376.471 369.396 385.594C369.396 394.717 376.788 402.113 385.906 402.113Z" fill="#FFB8B8"/>
<path d="M404.622 381.512C405.35 379.428 405.632 377.214 405.449 375.014C405.265 372.814 404.621 370.678 403.557 368.744C401.436 364.981 397.352 361.454 389.5 361.255C372.37 360.821 364.947 373.744 365.912 377.533C366.877 381.323 370.33 390.339 370.33 390.339C370.33 390.339 368.189 381.657 372.471 380.789C376.754 379.921 393.349 376.448 398.167 380.355C399.541 381.408 400.612 382.806 401.27 384.407C401.928 386.009 402.151 387.756 401.914 389.471L404.622 381.512Z" fill="#2F2E41"/>
<path d="M529.019 700.25C538.898 700.25 546.907 692.237 546.907 682.352C546.907 672.467 538.898 664.453 529.019 664.453C519.139 664.453 511.13 672.467 511.13 682.352C511.13 692.237 519.139 700.25 529.019 700.25Z" fill="#E6E6E6"/>
</g>
<defs>
<filter id="filter0_f_482_296" x="285.775" y="437.71" width="566.853" height="478.098" filterUnits="userSpaceOnUse" color-interpolation-filters="sRGB">
<feFlood flood-opacity="0" result="BackgroundImageFix"/>
<feBlend mode="normal" in="SourceGraphic" in2="BackgroundImageFix" result="shape"/>
<feGaussianBlur stdDeviation="51.5773" result="effect1_foregroundBlur_482_296"/>
</filter>
<clipPath id="clip0_482_296">
<rect width="371" height="501" fill="white" transform="translate(282.583 233.691)"/>
</clipPath>
</defs>
</svg>
