<svg width="21" height="22" viewBox="0 0 21 22" fill="none" xmlns="http://www.w3.org/2000/svg">
<path fill-rule="evenodd" clip-rule="evenodd" d="M10.5016 0.583008C16.2454 0.583008 20.9183 5.25592 20.9183 10.9997C20.9183 16.7434 16.2454 21.4163 10.5016 21.4163C4.75788 21.4163 0.0849609 16.7434 0.0849609 10.9997C0.0849609 5.25592 4.75788 0.583008 10.5016 0.583008ZM10.5016 2.14551C5.61934 2.14551 1.64746 6.11738 1.64746 10.9997C1.64746 15.882 5.61934 19.8538 10.5016 19.8538C15.3839 19.8538 19.3558 15.882 19.3558 10.9997C19.3558 6.11738 15.3839 2.14551 10.5016 2.14551ZM10.5057 13.9121C11.0817 13.9121 11.5474 14.3777 11.5474 14.9537C11.5474 15.5298 11.0817 15.9954 10.5057 15.9954C9.92965 15.9954 9.45882 15.5298 9.45882 14.9537C9.45882 14.3777 9.92027 13.9121 10.4953 13.9121H10.5057ZM10.4955 6.26426C10.9267 6.26426 11.2767 6.61426 11.2767 7.04551V11.6486C11.2767 12.0799 10.9267 12.4299 10.4955 12.4299C10.0642 12.4299 9.71423 12.0799 9.71423 11.6486V7.04551C9.71423 6.61426 10.0642 6.26426 10.4955 6.26426Z" fill="#474747"/>
</svg>
