<svg width="21" height="21" viewBox="0 0 21 21" fill="none" xmlns="http://www.w3.org/2000/svg">
<path d="M10.417 0.5C15.8845 0.500176 20.333 4.94949 20.333 10.417C20.3328 15.8843 15.8843 20.3328 10.417 20.333C4.94949 20.333 0.500176 15.8845 0.5 10.417C0.5 4.94938 4.94938 0.5 10.417 0.5ZM10.417 1.0625C5.25856 1.0625 1.0625 5.25856 1.0625 10.417C1.06268 15.5753 5.25867 19.7705 10.417 19.7705C15.5752 19.7703 19.7703 15.5752 19.7705 10.417C19.7705 5.25867 15.5753 1.06268 10.417 1.0625ZM10.4102 13.8291H10.4209C10.7207 13.8292 10.9619 14.0713 10.9619 14.3711C10.9617 14.6708 10.7206 14.912 10.4209 14.9121C10.1179 14.9121 9.87422 14.6676 9.87402 14.3711C9.87402 14.0683 10.1143 13.8292 10.4102 13.8291ZM10.4102 6.18164C10.5653 6.18164 10.6914 6.30778 10.6914 6.46289V11.0654C10.6914 11.2205 10.5653 11.3467 10.4102 11.3467C10.2552 11.3465 10.1289 11.2204 10.1289 11.0654V6.46289C10.1289 6.3079 10.2552 6.18184 10.4102 6.18164Z" fill="#474747" stroke="#383F91"/>
</svg>
