<svg width="21" height="21" viewBox="0 0 21 21" fill="none" xmlns="http://www.w3.org/2000/svg">
<path fill-rule="evenodd" clip-rule="evenodd" d="M14.3815 0.875C17.5551 0.875 19.6875 3.10275 19.6875 6.41813V14.1444C19.6875 17.4597 17.5551 19.6875 14.3815 19.6875H6.181C3.00738 19.6875 0.875 17.4597 0.875 14.1444V6.41813C0.875 3.10275 3.00738 0.875 6.181 0.875H14.3815ZM14.3815 2.1875H6.181C3.7555 2.1875 2.1875 3.84738 2.1875 6.41813V14.1444C2.1875 16.7151 3.7555 18.375 6.181 18.375H14.3815C16.8079 18.375 18.375 16.7151 18.375 14.1444V6.41813C18.375 3.84738 16.8079 2.1875 14.3815 2.1875ZM6.23096 8.05219C6.59321 8.05219 6.88721 8.34619 6.88721 8.70844V14.7109C6.88721 15.0732 6.59321 15.3672 6.23096 15.3672C5.86871 15.3672 5.57471 15.0732 5.57471 14.7109V8.70844C5.57471 8.34619 5.86871 8.05219 6.23096 8.05219ZM10.3146 5.17869C10.6768 5.17869 10.9708 5.47269 10.9708 5.83494V14.7101C10.9708 15.0723 10.6768 15.3663 10.3146 15.3663C9.95234 15.3663 9.65834 15.0723 9.65834 14.7101V5.83494C9.65834 5.47269 9.95234 5.17869 10.3146 5.17869ZM14.3311 11.2241C14.6933 11.2241 14.9874 11.5181 14.9874 11.8803V14.7101C14.9874 15.0723 14.6933 15.3663 14.3311 15.3663C13.9689 15.3663 13.6748 15.0723 13.6748 14.7101V11.8803C13.6748 11.5181 13.9689 11.2241 14.3311 11.2241Z" fill="#474747"/>
</svg>
