<svg width="19" height="20" viewBox="0 0 19 20" fill="none" xmlns="http://www.w3.org/2000/svg">
<path fill-rule="evenodd" clip-rule="evenodd" d="M11.0024 13.3798C12.0559 13.3798 12.9134 14.2312 12.9134 15.2777V17.9692C12.9134 18.1941 13.0936 18.3743 13.3246 18.3796H14.9924C16.3066 18.3796 17.375 17.3243 17.375 16.0276V8.39409C17.3689 7.94784 17.1562 7.52784 16.7914 7.24872L11.0225 2.64797C10.2481 2.03459 9.16488 2.03459 8.38788 2.64972L2.65838 7.24697C2.2795 7.53484 2.06687 7.95484 2.0625 8.40897V16.0276C2.0625 17.3243 3.13087 18.3796 4.44512 18.3796H6.12862C6.36575 18.3796 6.55825 18.1915 6.55825 17.9605C6.55825 17.9097 6.56437 17.859 6.57487 17.8108V15.2777C6.57487 14.2373 7.42712 13.3868 8.47275 13.3798H11.0024ZM14.9924 19.6921H13.3089C12.3446 19.6693 11.6009 18.9125 11.6009 17.9692V15.2777C11.6009 14.9548 11.3322 14.6923 11.0024 14.6923H8.47713C8.15425 14.6941 7.88738 14.9575 7.88738 15.2777V17.9605C7.88738 18.0261 7.87863 18.0891 7.86025 18.1486C7.76575 19.0148 7.0255 19.6921 6.12862 19.6921H4.44512C2.40725 19.6921 0.75 18.048 0.75 16.0276V8.40285C0.75875 7.53309 1.1595 6.73684 1.85163 6.21272L7.56975 1.62334C8.82887 0.625844 10.5833 0.625844 11.8398 1.62159L17.599 6.21534C18.2754 6.73072 18.6761 7.52522 18.6875 8.38447V16.0276C18.6875 18.048 17.0303 19.6921 14.9924 19.6921Z" fill="#474747"/>
</svg>
