<svg width="18" height="19" viewBox="0 0 18 19" fill="none" xmlns="http://www.w3.org/2000/svg">
<path fill-rule="evenodd" clip-rule="evenodd" d="M10.2524 12.5048C11.3059 12.5048 12.1634 13.3562 12.1634 14.4027V17.0942C12.1634 17.3191 12.3436 17.4993 12.5746 17.5046H14.2424C15.5566 17.5046 16.625 16.4493 16.625 15.1526V7.51909C16.6189 7.07284 16.4062 6.65284 16.0414 6.37372L10.2725 1.77297C9.49813 1.15959 8.41488 1.15959 7.63788 1.77472L1.90838 6.37197C1.5295 6.65985 1.31688 7.07985 1.3125 7.53397V15.1526C1.3125 16.4493 2.38087 17.5046 3.69512 17.5046H5.37862C5.61575 17.5046 5.80825 17.3165 5.80825 17.0855C5.80825 17.0347 5.81437 16.984 5.82487 16.9358V14.4027C5.82487 13.3623 6.67713 12.5118 7.72275 12.5048H10.2524ZM14.2424 18.8171H12.5589C11.5946 18.7943 10.8509 18.0375 10.8509 17.0942V14.4027C10.8509 14.0798 10.5822 13.8173 10.2524 13.8173H7.72713C7.40425 13.8191 7.13738 14.0825 7.13738 14.4027V17.0855C7.13738 17.1511 7.12863 17.2141 7.11025 17.2736C7.01575 18.1398 6.2755 18.8171 5.37862 18.8171H3.69512C1.65725 18.8171 0 17.173 0 15.1526V7.52785C0.00875 6.6581 0.4095 5.86184 1.10163 5.33772L6.81975 0.748344C8.07887 -0.249156 9.83325 -0.249156 11.0898 0.746594L16.849 5.34034C17.5254 5.85572 17.9261 6.65022 17.9375 7.50947V15.1526C17.9375 17.173 16.2803 18.8171 14.2424 18.8171Z" fill="#383F91"/>
</svg>
