<svg width="20" height="14" viewBox="0 0 20 14" fill="none" xmlns="http://www.w3.org/2000/svg">
<path d="M0 0H20V14H0V0ZM10 3.5C10.8841 3.5 11.7319 3.86875 12.357 4.52513C12.9821 5.1815 13.3333 6.07174 13.3333 7C13.3333 7.92826 12.9821 8.8185 12.357 9.47487C11.7319 10.1313 10.8841 10.5 10 10.5C9.11594 10.5 8.2681 10.1313 7.64298 9.47487C7.01786 8.8185 6.66667 7.92826 6.66667 7C6.66667 6.07174 7.01786 5.1815 7.64298 4.52513C8.2681 3.86875 9.11594 3.5 10 3.5ZM4.44444 2.33333C4.44444 2.95217 4.21032 3.54566 3.79357 3.98325C3.37682 4.42083 2.81159 4.66667 2.22222 4.66667V9.33333C2.81159 9.33333 3.37682 9.57917 3.79357 10.0168C4.21032 10.4543 4.44444 11.0478 4.44444 11.6667H15.5556C15.5556 11.0478 15.7897 10.4543 16.2064 10.0168C16.6232 9.57917 17.1884 9.33333 17.7778 9.33333V4.66667C17.1884 4.66667 16.6232 4.42083 16.2064 3.98325C15.7897 3.54566 15.5556 2.95217 15.5556 2.33333H4.44444Z" fill="#383F91"/>
</svg>
