<svg width="26" height="26" viewBox="0 0 26 26" fill="none" xmlns="http://www.w3.org/2000/svg">
<path fill-rule="evenodd" clip-rule="evenodd" d="M18.4741 2.16663C21.1163 2.16663 23.2678 4.31704 23.2678 6.96038V19.0276C23.2678 21.6775 21.1109 23.8333 18.4622 23.8333H13.1701C10.5278 23.8333 8.37742 21.6829 8.37742 19.0395V18.019C8.37742 17.5705 8.74142 17.2065 9.18992 17.2065C9.63842 17.2065 10.0024 17.5705 10.0024 18.019V19.0395C10.0024 20.7859 11.4237 22.2083 13.1701 22.2083H18.4622C20.2161 22.2083 21.6428 20.7826 21.6428 19.0276V6.96038C21.6428 5.21404 20.2204 3.79163 18.4741 3.79163H13.182C11.4292 3.79163 10.0024 5.21729 10.0024 6.97013V7.98088C10.0024 8.42938 9.63842 8.79338 9.18992 8.79338C8.74142 8.79338 8.37742 8.42938 8.37742 7.98088V6.97013C8.37742 4.32138 10.5333 2.16663 13.182 2.16663H18.4741ZM14.5083 9.26571L17.6814 12.4255C17.7071 12.4513 17.7311 12.4787 17.7532 12.5077L17.6814 12.4247C17.7247 12.4674 17.7625 12.5145 17.7946 12.5649C17.8012 12.5776 17.8086 12.5899 17.8156 12.6025C17.828 12.6219 17.8384 12.6425 17.848 12.6635C17.8534 12.6784 17.8596 12.6932 17.8654 12.7083C17.8747 12.7289 17.8818 12.75 17.8881 12.7715C17.8918 12.7884 17.8961 12.8052 17.8999 12.8223C17.9058 12.843 17.9096 12.8637 17.9126 12.8847C17.9126 12.8942 17.9139 12.9042 17.9149 12.9142C17.9193 12.9428 17.9208 12.9713 17.9208 13L17.9129 13.0855L17.912 13.1102C17.9117 13.112 17.9115 13.1138 17.9112 13.1157L17.9208 13C17.9208 13.0601 17.9142 13.1196 17.9012 13.1775C17.8961 13.1947 17.8918 13.2115 17.8869 13.2282C17.8818 13.2499 17.8747 13.271 17.8667 13.2919C17.8596 13.3067 17.8534 13.3215 17.8468 13.3361C17.8384 13.3574 17.828 13.378 17.8166 13.3982C17.8086 13.41 17.8012 13.4223 17.7935 13.4345C17.7818 13.4551 17.7681 13.4748 17.7534 13.4938C17.7434 13.505 17.7341 13.5165 17.7245 13.5278C17.7115 13.5443 17.6968 13.56 17.6814 13.5752L14.5083 16.7331C14.3502 16.8913 14.1422 16.9704 13.9352 16.9704C13.7272 16.9704 13.5182 16.8913 13.36 16.731C13.0426 16.4125 13.0447 15.899 13.3622 15.5826L15.1396 13.8125H4.0625C3.614 13.8125 3.25 13.4485 3.25 13C3.25 12.5515 3.614 12.1875 4.0625 12.1875H15.1396L13.3622 10.4162C13.0447 10.0999 13.0426 9.58638 13.36 9.26788C13.6774 8.94938 14.1909 8.94938 14.5083 9.26571Z" fill="#474747"/>
</svg>
