<svg width="24" height="22" viewBox="0 0 24 22" fill="none" xmlns="http://www.w3.org/2000/svg">
<path d="M8.288 11.87H5.642V14.586H3.794V11.87H1.148V10.162H3.794V7.446H5.642V10.162H8.288V11.87Z" fill="#444444"/>
<path d="M15.9279 12.9091C19.8774 12.9091 23.2103 13.5554 23.2103 16.0487C23.2103 18.543 19.8555 19.1663 15.9279 19.1663C11.9794 19.1663 8.64551 18.5201 8.64551 16.0267C8.64551 13.5325 12.0003 12.9091 15.9279 12.9091ZM15.9279 0.833008C18.6034 0.833008 20.747 2.99086 20.747 5.68314C20.747 8.37542 18.6034 10.5342 15.9279 10.5342C13.2534 10.5342 11.1088 8.37542 11.1088 5.68314C11.1088 2.99086 13.2534 0.833008 15.9279 0.833008Z" fill="#474747"/>
</svg>
