<svg width="24" height="22" viewBox="0 0 24 22" fill="none" xmlns="http://www.w3.org/2000/svg">
<path d="M8.288 11.87H5.642V14.586H3.794V11.87H1.148V10.162H3.794V7.446H5.642V10.162H8.288V11.87Z" fill="#383F91"/>
<path d="M16.3333 12.9091C20.3104 12.9091 23.6667 13.5554 23.6667 16.0487C23.6667 18.543 20.2884 19.1663 16.3333 19.1663C12.3572 19.1663 9 18.5201 9 16.0267C9 13.5325 12.3783 12.9091 16.3333 12.9091ZM16.3333 0.833008C19.0275 0.833008 21.1862 2.99086 21.1862 5.68314C21.1862 8.37542 19.0275 10.5342 16.3333 10.5342C13.6401 10.5342 11.4805 8.37542 11.4805 5.68314C11.4805 2.99086 13.6401 0.833008 16.3333 0.833008Z" fill="#383F91"/>
</svg>
