<svg width="889" height="985" viewBox="0 0 889 985" fill="none" xmlns="http://www.w3.org/2000/svg">
<path d="M307.582 778.21C257.015 752.872 225.971 700.406 216.716 635.973C207.462 571.541 220.007 495.192 256.575 422.213C293.143 349.233 346.79 293.479 403.941 262.321C461.094 231.162 521.705 224.621 572.272 249.959C622.838 275.296 653.882 327.762 663.136 392.196C672.391 456.627 659.845 532.976 623.277 605.956C586.71 678.935 533.062 734.689 475.911 765.847C418.759 797.006 358.149 803.547 307.582 778.21Z" stroke="black"/>
<path d="M263.804 756.274C213.237 730.937 182.193 678.471 172.938 614.037C163.684 549.606 176.229 473.257 212.797 400.277C249.365 327.297 303.012 271.543 360.163 240.386C417.316 209.227 477.927 202.686 528.494 228.023C579.061 253.361 610.104 305.827 619.358 370.26C628.613 434.691 616.067 511.04 579.5 584.02C542.932 657 489.285 712.754 432.134 743.911C374.981 775.07 314.371 781.612 263.804 756.274Z" stroke="black"/>
<path d="M220.026 734.339C169.459 709.001 138.416 656.535 129.161 592.101C119.906 527.67 132.452 451.321 169.02 378.342C205.587 305.362 259.235 249.608 316.386 218.45C373.539 187.291 434.149 180.75 484.716 206.088C535.283 231.425 566.326 283.891 575.581 348.325C584.835 412.756 572.29 489.105 535.722 562.084C499.154 635.064 445.507 690.818 388.356 721.976C331.203 753.135 270.593 759.676 220.026 734.339Z" stroke="black"/>
<g filter="url(#filter0_f_482_456)">
<ellipse cx="388.544" cy="712.08" rx="193.544" ry="116.08" fill="#FEF8A8"/>
</g>
<g filter="url(#filter1_f_482_456)">
<ellipse cx="412.587" cy="583.08" rx="189.539" ry="116.08" fill="#313682"/>
</g>
<path d="M214.439 410.908L223.521 411.53L225.023 421.629L213.007 422.421L214.439 410.908Z" fill="#ED9DA0"/>
<path d="M439.62 331.492C478.696 310.601 528.29 321.553 554.584 358.596L553.689 359.23C527.72 322.644 478.732 311.83 440.137 332.459C436.858 334.212 433.693 336.169 430.661 338.32C390.973 366.447 381.585 421.595 409.735 461.25L408.84 461.885C380.34 421.735 389.844 365.902 430.026 337.425C433.097 335.249 436.301 333.267 439.62 331.492Z" fill="#090814"/>
<path d="M646.626 420.786L518.103 410.798C516.109 410.64 514.258 409.699 512.957 408.18C511.656 406.661 511.01 404.688 511.163 402.695L516.734 340.298C516.892 338.304 517.834 336.455 519.355 335.155C520.876 333.855 522.85 333.21 524.846 333.363L653.368 343.354C655.363 343.511 657.215 344.453 658.516 345.972C659.817 347.492 660.462 349.465 660.309 351.459L654.737 413.853C654.579 415.847 653.636 417.696 652.116 418.995C650.595 420.295 648.621 420.939 646.626 420.786Z" fill="#E6E6E6"/>
<path d="M616.267 406.692C615.292 406.692 614.313 406.654 613.33 406.578L530.27 400.122C528.609 399.993 526.99 399.538 525.505 398.784C524.02 398.029 522.698 396.99 521.615 395.726C520.532 394.461 519.709 392.995 519.193 391.413C518.677 389.83 518.478 388.162 518.607 386.502L520.501 362.175C520.766 358.825 522.349 355.716 524.905 353.531C527.46 351.346 530.779 350.264 534.132 350.521L641.538 358.87C644.89 359.135 648.001 360.717 650.187 363.27C652.374 365.823 653.457 369.138 653.201 372.488C652.477 381.785 648.273 390.468 641.428 396.807C634.583 403.146 625.6 406.675 616.267 406.691V406.692Z" fill="white"/>
<path d="M577.459 398.169L587.721 397.203L588.928 410.059L576.943 411.101L577.459 398.169Z" fill="#ED9DA0"/>
<path d="M638.968 378.209L533.678 370.024C533.239 369.984 532.834 369.773 532.55 369.437C532.266 369.1 532.126 368.666 532.16 368.227C532.195 367.788 532.4 367.381 532.733 367.092C533.065 366.804 533.498 366.658 533.938 366.686L639.228 374.871C639.45 374.885 639.666 374.943 639.865 375.042C640.064 375.14 640.241 375.277 640.387 375.445C640.532 375.612 640.643 375.807 640.712 376.018C640.782 376.228 640.809 376.451 640.792 376.672C640.774 376.893 640.713 377.109 640.612 377.306C640.511 377.503 640.371 377.679 640.202 377.822C640.032 377.965 639.836 378.073 639.624 378.139C639.412 378.206 639.189 378.229 638.968 378.209Z" fill="#E6E6E6"/>
<path d="M595.249 381.446L533.164 376.622C532.725 376.581 532.32 376.37 532.036 376.034C531.752 375.698 531.612 375.263 531.646 374.824C531.681 374.386 531.886 373.978 532.219 373.69C532.552 373.401 532.984 373.255 533.424 373.283L595.509 378.108C595.947 378.148 596.352 378.359 596.636 378.695C596.92 379.032 597.06 379.466 597.026 379.905C596.992 380.344 596.786 380.751 596.454 381.04C596.121 381.328 595.688 381.474 595.249 381.446Z" fill="#E6E6E6"/>
<path d="M608.925 389.145L532.651 383.215C532.212 383.175 531.807 382.964 531.523 382.627C531.239 382.291 531.099 381.857 531.133 381.418C531.168 380.979 531.373 380.571 531.706 380.283C532.039 379.995 532.472 379.849 532.911 379.877L609.186 385.806C609.624 385.846 610.029 386.057 610.313 386.394C610.597 386.73 610.737 387.164 610.703 387.603C610.669 388.042 610.463 388.45 610.131 388.738C609.798 389.026 609.365 389.172 608.926 389.144L608.925 389.145Z" fill="#E6E6E6"/>
<path d="M638.026 505.486L509.503 495.498C507.508 495.34 505.657 494.399 504.356 492.88C503.055 491.361 502.41 489.388 502.562 487.395L508.134 425C508.292 423.007 509.234 421.157 510.755 419.857C512.275 418.557 514.25 417.912 516.245 418.065L644.768 428.056C646.763 428.214 648.614 429.155 649.915 430.675C651.216 432.194 651.861 434.167 651.708 436.161L646.136 498.556C645.978 500.548 645.035 502.397 643.514 503.696C641.994 504.995 640.02 505.639 638.026 505.486Z" fill="#E6E6E6"/>
<path d="M607.634 491.391C606.672 491.391 605.704 491.353 604.73 491.278L521.67 484.822C520.009 484.693 518.39 484.238 516.905 483.484C515.421 482.729 514.099 481.69 513.016 480.426C511.933 479.161 511.11 477.695 510.594 476.113C510.077 474.53 509.878 472.862 510.007 471.202L511.901 446.875C512.162 443.523 513.745 440.413 516.301 438.227C518.858 436.042 522.178 434.96 525.532 435.221L632.938 443.57C636.292 443.831 639.405 445.412 641.592 447.966C643.78 450.521 644.862 453.838 644.601 457.19C643.865 466.488 639.654 475.169 632.804 481.506C625.955 487.844 616.968 491.372 607.634 491.391Z" fill="white"/>
<path d="M630.368 462.909L525.078 454.725C524.856 454.71 524.64 454.652 524.441 454.554C524.242 454.455 524.065 454.318 523.919 454.151C523.774 453.983 523.663 453.789 523.594 453.578C523.524 453.367 523.497 453.145 523.514 452.924C523.532 452.703 523.593 452.487 523.694 452.29C523.795 452.092 523.935 451.917 524.104 451.774C524.274 451.631 524.47 451.523 524.682 451.457C524.894 451.39 525.117 451.366 525.338 451.386L630.629 459.571C631.067 459.612 631.472 459.823 631.756 460.159C632.04 460.495 632.18 460.93 632.146 461.369C632.112 461.807 631.906 462.215 631.574 462.503C631.241 462.792 630.808 462.938 630.368 462.909Z" fill="#E6E6E6"/>
<path d="M586.648 466.146L524.564 461.322C524.342 461.308 524.126 461.25 523.927 461.151C523.728 461.053 523.55 460.916 523.405 460.748C523.26 460.58 523.149 460.386 523.079 460.175C523.01 459.964 522.983 459.742 523 459.521C523.017 459.3 523.078 459.084 523.18 458.887C523.281 458.689 523.421 458.514 523.59 458.371C523.76 458.228 523.956 458.12 524.168 458.054C524.38 457.987 524.603 457.963 524.824 457.984L586.908 462.808C587.347 462.848 587.752 463.059 588.036 463.396C588.32 463.732 588.46 464.166 588.426 464.605C588.392 465.044 588.186 465.451 587.853 465.74C587.521 466.028 587.088 466.174 586.648 466.146Z" fill="#E6E6E6"/>
<path d="M600.325 473.845L524.051 467.916C523.829 467.901 523.612 467.843 523.414 467.745C523.215 467.647 523.037 467.51 522.892 467.342C522.746 467.174 522.636 466.98 522.566 466.769C522.497 466.558 522.47 466.336 522.487 466.115C522.504 465.894 522.565 465.678 522.667 465.481C522.768 465.283 522.907 465.108 523.077 464.965C523.247 464.822 523.443 464.714 523.655 464.648C523.867 464.581 524.09 464.557 524.311 464.578L600.585 470.507C601.024 470.547 601.429 470.758 601.713 471.094C601.997 471.431 602.137 471.865 602.103 472.304C602.069 472.742 601.863 473.15 601.53 473.439C601.198 473.727 600.765 473.873 600.325 473.845H600.325Z" fill="#E6E6E6"/>
<path d="M311.101 472.888C307.806 465.428 307.613 456.965 310.562 449.361C313.512 441.758 319.364 435.637 326.831 432.345C334.298 429.053 342.767 428.859 350.377 431.807C357.986 434.754 364.112 440.602 367.407 448.062L366.403 448.505C364.83 444.943 362.57 441.725 359.752 439.035C356.934 436.346 353.614 434.237 349.98 432.829C346.347 431.422 342.472 430.743 338.576 430.832C334.68 430.921 330.84 431.776 327.275 433.348C323.709 434.92 320.489 437.178 317.797 439.994C315.105 442.81 312.995 446.127 311.586 449.758C310.178 453.388 309.499 457.26 309.588 461.153C309.677 465.046 310.532 468.883 312.106 472.445L311.101 472.888Z" fill="#090814"/>
<path d="M596.838 625.868C595.786 624.283 595.068 622.501 594.727 620.63C594.386 618.759 594.429 616.839 594.853 614.985C594.941 614.627 594.301 614.479 594.213 614.836C593.776 616.766 593.735 618.765 594.095 620.712C594.454 622.658 595.205 624.511 596.303 626.159C596.518 626.494 597.051 626.201 596.838 625.868Z" fill="white"/>
<path d="M630.265 501.072L622.628 460.449L607.637 440.732L596.526 447.99C598.096 456.498 609.971 472.381 609.971 472.381L620.497 503.794C620.454 503.958 620.415 504.123 620.387 504.292C620.22 505.286 620.312 506.306 620.655 507.254C620.998 508.202 621.58 509.045 622.344 509.703C623.108 510.36 624.03 510.81 625.019 511.008C626.008 511.205 627.031 511.145 627.99 510.832C628.949 510.519 629.811 509.964 630.492 509.221C631.174 508.478 631.652 507.571 631.88 506.59C632.109 505.608 632.08 504.584 631.797 503.617C631.513 502.649 630.985 501.771 630.263 501.068L630.265 501.072Z" fill="#ED9DA0"/>
<path d="M596.825 452.284L609.403 442.084L609.427 442.029C611.78 436.702 606.557 427.568 601.761 420.844C600.177 418.629 597.811 417.097 595.14 416.557C592.469 416.018 589.694 416.512 587.373 417.939C585.669 419.003 584.296 420.523 583.411 422.327C582.526 424.13 582.163 426.144 582.363 428.143L583.421 438.319L596.825 452.284Z" fill="#3F3D56"/>
<path d="M552.371 654.439H542.89L538.379 622.184H552.373L552.371 654.439Z" fill="#ED9DA0"/>
<path d="M591.3 654.439H580.716L575.682 622.184H591.303L591.3 654.439Z" fill="#ED9DA0"/>
<path d="M592.451 650.599C589.007 647.325 589.902 650.599 579.952 646.556L574.619 650.598C571.605 650.598 568.715 651.795 566.584 653.924C564.453 656.053 563.256 658.941 563.255 661.952V662.322H592.451C592.451 662.322 595.895 653.872 592.451 650.599Z" fill="#090814"/>
<path d="M602.268 515.506C602.268 515.506 603.245 527.224 600.802 538.453C598.358 549.682 598.358 581.305 598.358 581.305L592.981 642.931L576.857 641.466L572.461 538.453L556.825 573.117L558.291 577.999L556.338 579.22C556.338 579.22 557.802 588.74 556.825 588.74C555.847 588.74 553.404 590.205 553.404 590.205L555.359 640.492L538.746 640.004L532.884 569.212L539.236 528.689L539.725 520.877L541.924 520.968L543.044 517.704L545.1 512.089L602.268 515.506Z" fill="#090814"/>
<path d="M603.112 517.968L603.199 517.845C607.85 511.339 600.855 495.705 599.797 493.439L606.162 476.316L606.171 476.232L608.125 459.144L610.967 447.795C612.038 443.505 611.947 439.007 610.703 434.763C609.459 430.519 607.107 426.683 603.889 423.647L597.321 417.459L589.341 405.655H576.466L572.052 413.988C567.773 414.977 563.977 417.434 561.324 420.932C558.671 424.429 557.33 428.746 557.535 433.13L558.535 454.979L554.619 482.184V487.107L551.174 496.81C545.726 505.96 541.843 513.257 542.194 513.496C544.951 515.36 560.19 519.165 566.934 516.468C574.118 513.598 602.676 517.904 602.964 517.948L603.112 517.968Z" fill="#2B3078"/>
<path d="M491.164 662.348C491.164 662.433 491.18 662.518 491.213 662.597C491.245 662.676 491.293 662.748 491.353 662.808C491.413 662.869 491.485 662.917 491.564 662.95C491.643 662.983 491.727 663 491.813 663H645.601C645.774 663 645.94 662.931 646.063 662.809C646.185 662.687 646.254 662.521 646.254 662.348C646.254 662.175 646.185 662.009 646.063 661.886C645.94 661.764 645.774 661.695 645.601 661.695H491.817C491.644 661.695 491.478 661.763 491.356 661.885C491.234 662.006 491.164 662.171 491.164 662.344V662.348Z" fill="#E6E6E6"/>
<path d="M581.242 402.941C590.657 402.941 598.29 395.314 598.29 385.905C598.29 376.497 590.657 368.87 581.242 368.87C571.826 368.87 564.193 376.497 564.193 385.905C564.193 395.314 571.826 402.941 581.242 402.941Z" fill="#ED9DA0"/>
<path d="M579.608 403.217C582.249 403.191 584.882 402.938 587.479 402.464C590.051 401.872 595.724 397.488 597.271 394.898C598.419 392.974 599.109 389.998 599.485 387.84C599.993 384.985 599.895 382.055 599.198 379.239C598.5 376.424 597.219 373.786 595.436 371.497C594.749 370.538 593.816 369.783 592.734 369.311C592.639 369.276 592.54 369.246 592.441 369.22C590.874 368.851 589.452 368.022 588.359 366.84C588.147 366.6 587.918 366.377 587.673 366.17C586.447 365.19 585.006 364.514 583.469 364.197C580.984 363.6 577.43 364.347 572.905 366.419C570.632 367.461 568.109 367.17 566.165 366.803C566.056 366.785 565.944 366.796 565.84 366.834C565.737 366.873 565.645 366.937 565.574 367.022C564.771 367.815 563.698 368.275 562.57 368.31C561.88 368.358 561.179 369.333 560.334 370.603C560.143 370.891 559.919 371.227 559.757 371.433L559.725 371.049L559.345 371.488C558.748 372.18 558.336 373.013 558.148 373.907C557.959 374.802 558.001 375.73 558.268 376.604C558.535 377.479 559.019 378.272 559.675 378.909C560.331 379.546 561.138 380.007 562.02 380.249C562.721 380.415 563.436 380.51 564.155 380.532C564.592 380.56 565.043 380.587 565.476 380.653C566.868 380.9 568.171 381.504 569.26 382.405C570.348 383.307 571.184 384.475 571.686 385.795C571.805 386.099 571.993 386.372 572.234 386.592C572.476 386.813 572.765 386.975 573.079 387.066C573.393 387.158 573.723 387.176 574.046 387.12C574.368 387.063 574.673 386.934 574.937 386.742C575.377 386.381 575.898 386.131 576.456 386.015C577.014 385.898 577.591 385.919 578.139 386.073C578.616 386.322 578.993 386.728 579.206 387.221C579.464 387.77 579.879 388.23 580.4 388.542C582.175 389.4 582.399 393.394 581.856 396.743C581.333 399.971 580.194 402.326 579.087 402.469C578.235 402.579 578.138 402.643 578.081 402.795L578.029 402.932L578.128 403.056C578.605 403.215 579.11 403.269 579.61 403.215L579.608 403.217Z" fill="#090814"/>
<path d="M392.238 489.93C410.961 489.93 426.139 474.764 426.139 456.056C426.139 437.348 410.961 422.182 392.238 422.182C373.515 422.182 358.337 437.348 358.337 456.056C358.337 474.764 373.515 489.93 392.238 489.93Z" fill="#2B3078"/>
<path d="M575.681 451.015L564.499 443.869C557.378 448.791 547.754 466.127 547.754 466.127L523.398 488.612C522.384 488.786 521.433 489.224 520.641 489.882C519.85 490.54 519.246 491.394 518.89 492.36C518.535 493.325 518.44 494.367 518.615 495.38C518.79 496.394 519.23 497.344 519.889 498.134C520.548 498.924 521.404 499.526 522.371 499.88C523.337 500.235 524.38 500.329 525.394 500.152C526.408 499.976 527.358 499.536 528.148 498.876C528.938 498.216 529.54 497.36 529.893 496.394L563.838 472.766L575.681 451.015Z" fill="#ED9DA0"/>
<path d="M574.615 453.915L582.063 436.054L579.369 426.186C578.833 424.25 577.767 422.502 576.289 421.14C574.811 419.778 572.982 418.856 571.007 418.478C568.328 417.986 565.561 418.527 563.266 419.995C560.97 421.462 559.318 423.745 558.643 426.383C556.603 434.387 555.037 444.787 559.156 448.904L559.198 448.946L574.615 453.915Z" fill="#2B3078"/>
<path d="M211.923 466.798L213.021 476.976L212.374 490.322L241.959 486.81L244.739 466.8L241.197 466.835L211.923 466.798Z" fill="#FFB6B6"/>
<path d="M195.523 651.58H203.632L207.492 626.651H195.523V651.58Z" fill="#ED9DA0"/>
<path d="M194.666 644.776L206.572 644.063V649.161L217.891 656.973C218.45 657.358 218.871 657.912 219.093 658.554C219.315 659.196 219.325 659.892 219.123 660.54C218.921 661.188 218.516 661.755 217.969 662.157C217.422 662.559 216.76 662.776 216.081 662.776H201.906L199.463 657.732L198.509 662.776H193.164L194.666 644.776Z" fill="#090814"/>
<path d="M231.265 651.58H239.471L243.376 626.651H231.265V651.58Z" fill="#ED9DA0"/>
<path d="M230.163 644.776L242.069 644.063V649.161L253.389 656.973C253.948 657.359 254.369 657.913 254.59 658.555C254.812 659.197 254.822 659.892 254.62 660.54C254.418 661.189 254.014 661.755 253.466 662.158C252.919 662.56 252.258 662.777 251.578 662.777H237.404L234.96 657.733L234.006 662.777H228.662L230.163 644.776Z" fill="#090814"/>
<path d="M193.788 630.083H193.858C193.467 586.398 194.636 571.461 196.897 531.064C192.751 504.216 212.509 486.707 212.509 486.707H242.108L248.462 508.521C252.663 549.416 251.901 589.267 245.234 627.874L245.416 627.966C246.071 628.192 246.349 629.098 246.043 629.989C245.738 630.88 244.955 631.42 244.301 631.195L228.669 630.652C228.015 630.426 227.737 629.52 228.042 628.629C228.348 627.737 229.13 627.197 229.785 627.423L230.848 627.96L228.581 588.847L228.832 581.703L228.314 573.598L225.918 537.141L216.849 581.972L207.586 630.536C207.841 630.767 208.02 631.07 208.1 631.405C208.179 631.74 208.155 632.091 208.031 632.412C207.906 632.734 207.687 633.009 207.403 633.204C207.118 633.398 206.781 633.501 206.437 633.5H193.788C193.561 633.504 193.335 633.463 193.124 633.379C192.913 633.295 192.721 633.17 192.559 633.011C192.397 632.852 192.268 632.662 192.18 632.453C192.093 632.244 192.047 632.019 192.047 631.792C192.047 631.565 192.093 631.341 192.18 631.132C192.268 630.922 192.397 630.733 192.559 630.574C192.721 630.415 192.913 630.289 193.124 630.205C193.335 630.121 193.561 630.08 193.788 630.084V630.083Z" fill="#090814"/>
<path d="M217.089 416.361C225.857 416.361 232.965 409.259 232.965 400.498C232.965 391.738 225.857 384.635 217.089 384.635C208.322 384.635 201.214 391.738 201.214 400.498C201.214 409.259 208.322 416.361 217.089 416.361Z" fill="#ED9DA0"/>
<path d="M147.523 473.785C149.755 468.61 152.819 463.834 156.594 459.647C153.397 464.738 151.57 470.567 151.29 476.57C152.447 477.293 153.657 477.926 154.911 478.463C158.68 480.043 162.698 480.945 166.78 481.128C168.981 473.803 172.779 467.056 177.901 461.373C174.209 467.255 172.353 474.102 172.568 481.042C177.121 480.648 181.608 479.687 185.923 478.182C192.401 475.955 198.69 472.629 203.171 467.456C208.02 461.857 210.41 454.468 211.181 447.102C211.953 439.737 211.227 432.314 210.496 424.948C210.15 421.44 213.075 417.399 212.731 413.888H212.5C210.964 411.782 209.396 409.624 208.641 407.127C207.887 404.63 208.088 401.695 209.811 399.733C210.775 398.708 211.993 397.953 213.341 397.546C213.467 397.385 213.606 397.23 213.749 397.074C216.357 394.306 219.426 392.013 222.82 390.295C220.372 392.142 218.737 394.231 217.976 396.389C220.096 395.923 222.215 395.459 224.334 394.997C225.042 394.247 225.788 393.533 226.569 392.859C227.703 391.875 228.078 391.8 229.431 390.874C228.339 391.834 227.493 393.042 226.962 394.395C229.686 393.711 232.41 392.681 233.827 390.339C236.177 386.466 233.384 381.241 229.485 378.928C226.649 377.327 223.381 376.657 220.143 377.014C216.906 377.37 213.862 378.734 211.442 380.913C205.804 376.764 197.776 376.833 191.505 379.935C187.364 382.074 183.798 385.174 181.104 388.975C182.666 388.774 184.239 388.665 185.815 388.646C183.597 388.97 181.485 389.806 179.647 391.086C178.833 392.348 178.087 393.652 177.412 394.993C176.969 395.873 176.55 396.765 176.157 397.669C173.743 403.159 172.171 409.005 170.542 414.782C168.641 421.515 166.602 428.294 163.044 434.318C157.587 443.479 148.979 450.342 138.828 453.624C137.981 461.235 141.701 468.681 147.523 473.785Z" fill="#090814"/>
<path d="M233.076 427.62L229.995 426.107L226.11 417.892L212.269 419.371L208.905 428.179L200.802 436.271L204.346 460.677L209.852 490.323L246.709 484.298L246.67 461.982C246.67 461.982 253.33 444.35 242.571 437.744L233.076 427.62Z" fill="#2B3078"/>
<path d="M289.888 484.479C289.172 484.766 288.403 484.892 287.633 484.85C286.863 484.807 286.112 484.597 285.432 484.233C284.753 483.869 284.161 483.361 283.7 482.744C283.238 482.127 282.917 481.416 282.76 480.662L241.665 455.818L249.176 447.156L287.21 474.303C288.495 474.122 289.803 474.42 290.884 475.139C291.964 475.857 292.744 476.947 293.074 478.202C293.404 479.457 293.262 480.789 292.675 481.946C292.088 483.103 291.096 484.004 289.888 484.479V484.479Z" fill="#ED9DA0"/>
<path d="M227.971 444.031C227.971 444.031 226.007 446.005 230.934 449.252C234.879 451.851 252.476 464.696 258.714 466.727C258.636 467.643 258.865 468.558 259.365 469.33C259.865 470.101 260.607 470.684 261.475 470.987L267.123 458.585C265.901 455.75 263.945 456.406 262.916 457.05L256.095 451.924L239.344 435.211L229.364 442.58L227.971 444.031Z" fill="#2B3078"/>
<path d="M211.542 381.341C209.634 384.155 208.401 387.371 207.94 390.738C207.479 394.105 207.801 397.533 208.882 400.756" fill="#FD6584"/>
<path d="M131 662.348C131 662.433 131.016 662.518 131.049 662.598C131.082 662.677 131.13 662.749 131.191 662.81C131.251 662.87 131.323 662.918 131.403 662.951C131.482 662.984 131.567 663 131.653 663H285.436C285.609 663 285.775 662.931 285.897 662.809C286.02 662.687 286.088 662.521 286.088 662.348C286.088 662.175 286.02 662.009 285.897 661.886C285.775 661.764 285.609 661.695 285.436 661.695H131.653C131.567 661.695 131.482 661.712 131.403 661.745C131.323 661.777 131.251 661.825 131.191 661.886C131.13 661.947 131.082 662.019 131.049 662.098C131.017 662.177 131 662.262 131 662.348Z" fill="#E6E6E6"/>
<path d="M189.591 514.068C189.208 514.203 188.894 514.485 188.719 514.85C188.543 515.216 188.519 515.637 188.652 516.02L210.077 577.722C210.213 578.105 210.494 578.418 210.86 578.594C211.226 578.77 211.647 578.793 212.03 578.66L336.696 534.955C337.079 534.819 337.393 534.538 337.569 534.172C337.745 533.806 337.768 533.386 337.635 533.003L316.21 471.3C316.074 470.918 315.793 470.604 315.427 470.428C315.06 470.252 314.64 470.229 314.256 470.362L189.591 514.068Z" fill="#E6E6E6"/>
<path d="M221.146 569.755C218.692 569.755 216.298 568.996 214.294 567.581C212.29 566.166 210.774 564.166 209.953 561.856L198.187 528.592C197.139 525.629 197.312 522.372 198.668 519.537C200.023 516.701 202.45 514.52 205.415 513.473L268.422 491.221C280.217 487.07 293.177 487.763 304.461 493.149C315.744 498.534 324.429 508.172 328.61 519.948C329.658 522.911 329.485 526.168 328.129 529.003C326.774 531.838 324.347 534.02 321.382 535.067L225.086 569.08C223.82 569.528 222.488 569.757 221.146 569.758V569.755Z" fill="white"/>
<path d="M304.7 504.186L248.283 523.961C247.488 524.24 246.503 523.496 246.082 522.298C245.662 521.101 245.966 519.905 246.761 519.626L303.178 499.847C303.973 499.569 304.958 500.313 305.378 501.511C305.799 502.708 305.495 503.908 304.7 504.186Z" fill="#E6E6E6"/>
<path d="M309.064 516.615L252.647 536.392C251.852 536.67 250.867 535.926 250.446 534.728C250.025 533.531 250.329 532.335 251.124 532.056L307.542 512.277C308.337 511.999 309.321 512.743 309.742 513.94C310.163 515.138 309.859 516.335 309.064 516.615Z" fill="#E6E6E6"/>
<path d="M240.649 530.725C241.255 532.432 241.55 534.233 241.518 536.043C241.506 536.871 241.424 537.696 241.274 538.51C240.793 541.141 239.625 543.599 237.889 545.634C236.152 547.669 233.909 549.211 231.385 550.102C228.862 550.993 226.147 551.203 223.517 550.71C220.886 550.216 218.432 549.038 216.404 547.293C216.199 547.118 215.999 546.937 215.805 546.751C214.148 545.165 212.872 543.224 212.073 541.074C211.274 538.925 210.973 536.622 211.192 534.34C211.41 532.057 212.144 529.854 213.336 527.895C214.529 525.936 216.15 524.272 218.078 523.029C220.006 521.785 222.191 520.994 224.468 520.715C226.746 520.435 229.057 520.675 231.229 521.415C233.401 522.156 235.377 523.378 237.008 524.991C238.64 526.603 239.884 528.564 240.649 530.725Z" fill="#E4E4E4"/>
<path d="M226.953 538.105C228.558 538.105 229.858 536.806 229.858 535.203C229.858 533.599 228.558 532.3 226.953 532.3C225.349 532.3 224.048 533.599 224.048 535.203C224.048 536.806 225.349 538.105 226.953 538.105Z" fill="#FD6584"/>
<path d="M215.805 546.751C216.551 545.021 217.432 542.382 219.475 543.343C220.484 543.781 222.29 545.108 223.024 543.562L228.768 531.547C228.877 531.323 229.03 531.124 229.218 530.96C229.405 530.796 229.624 530.671 229.86 530.592C230.097 530.514 230.347 530.483 230.595 530.502C230.844 530.522 231.086 530.591 231.307 530.705L241.52 536.043C241.508 536.871 241.426 537.696 241.275 538.51L216.405 547.293L215.805 546.751Z" fill="#090814"/>
<path d="M218.769 511.268C218.051 510.989 217.402 510.556 216.869 509.999C216.336 509.443 215.932 508.776 215.685 508.046C215.438 507.317 215.354 506.542 215.439 505.776C215.524 505.01 215.776 504.273 216.177 503.615L203.174 457.411L214.58 456.22L223.773 502.012C224.835 502.758 225.585 503.868 225.883 505.131C226.18 506.394 226.003 507.722 225.386 508.863C224.769 510.004 223.754 510.879 222.534 511.323C221.314 511.766 219.973 511.747 218.767 511.269L218.769 511.268Z" fill="#ED9DA0"/>
<path d="M201.253 432.048C201.253 432.048 198.469 432.147 199.845 437.883C200.947 442.475 204.993 471.279 208.157 477.022C207.473 477.637 207.014 478.462 206.852 479.366C206.689 480.271 206.832 481.203 207.259 482.017L219.865 476.822C220.912 473.916 220.101 471.281 218.91 471.047L217.438 462.647L215.267 434.468L203.264 431.942L201.253 432.048Z" fill="#2B3078"/>
<path d="M314.813 553.615L297.379 554.337C297.006 554.353 296.635 554.284 296.293 554.137C295.951 553.989 295.647 553.766 295.403 553.484C295.163 553.209 294.988 552.884 294.891 552.532C294.795 552.18 294.779 551.811 294.846 551.452C296.183 544.162 295.794 536.661 293.707 529.549C293.546 529.005 293.579 528.422 293.8 527.899C294.02 527.377 294.416 526.947 294.918 526.683C302.059 522.976 308.751 522.788 314.805 526.124C315.122 526.296 315.398 526.536 315.614 526.825C315.829 527.115 315.978 527.448 316.052 527.802C317.627 535.562 318.005 543.518 317.172 551.393C317.114 551.986 316.844 552.538 316.41 552.946C315.976 553.355 315.409 553.593 314.813 553.615Z" fill="#2B3078"/>
<path d="M314.076 542.213L300.744 542.765C300.413 542.776 300.092 542.657 299.849 542.433C299.607 542.208 299.463 541.897 299.449 541.567C299.435 541.237 299.553 540.915 299.776 540.671C299.999 540.427 300.31 540.282 300.64 540.266L313.972 539.714C314.303 539.703 314.624 539.822 314.867 540.047C315.11 540.271 315.253 540.582 315.267 540.912C315.281 541.242 315.163 541.564 314.94 541.808C314.717 542.052 314.406 542.198 314.076 542.213Z" fill="white"/>
<path d="M313.894 537.831L300.562 538.383C300.231 538.395 299.91 538.275 299.667 538.051C299.425 537.826 299.281 537.515 299.267 537.185C299.253 536.855 299.371 536.533 299.594 536.289C299.817 536.045 300.128 535.9 300.458 535.884L313.791 535.333C314.121 535.321 314.443 535.44 314.685 535.665C314.928 535.889 315.072 536.2 315.085 536.53C315.099 536.861 314.981 537.183 314.758 537.426C314.535 537.67 314.224 537.816 313.894 537.831Z" fill="white"/>
<path d="M633.669 417.342L616.368 415.075C615.998 415.027 615.644 414.896 615.332 414.692C615.02 414.489 614.758 414.217 614.566 413.897C614.376 413.586 614.259 413.235 614.224 412.872C614.19 412.508 614.237 412.142 614.364 411.8C616.93 404.846 617.829 397.389 616.99 390.025C616.925 389.462 617.057 388.893 617.364 388.416C617.671 387.939 618.134 387.583 618.674 387.409C626.344 384.976 632.969 385.934 638.364 390.255C638.647 390.478 638.877 390.761 639.04 391.083C639.202 391.405 639.293 391.758 639.305 392.119C639.53 400.034 638.54 407.937 636.372 415.554C636.214 416.128 635.853 416.625 635.356 416.954C634.859 417.282 634.26 417.42 633.669 417.341L633.669 417.342Z" fill="#2B3078"/>
<path d="M634.893 405.984L621.664 404.251C621.5 404.231 621.341 404.179 621.197 404.098C621.053 404.016 620.926 403.907 620.825 403.777C620.723 403.646 620.648 403.497 620.605 403.337C620.562 403.177 620.55 403.011 620.572 402.847C620.593 402.683 620.647 402.525 620.73 402.382C620.813 402.238 620.924 402.113 621.056 402.013C621.188 401.913 621.338 401.84 621.498 401.799C621.659 401.757 621.826 401.748 621.989 401.771L635.218 403.505C635.544 403.551 635.839 403.724 636.038 403.987C636.237 404.249 636.325 404.579 636.282 404.905C636.239 405.232 636.07 405.528 635.809 405.73C635.549 405.932 635.22 406.023 634.893 405.984Z" fill="white"/>
<path d="M635.464 401.634L622.235 399.899C621.909 399.853 621.614 399.68 621.415 399.417C621.216 399.155 621.128 398.825 621.171 398.499C621.214 398.172 621.384 397.876 621.644 397.674C621.904 397.472 622.233 397.38 622.56 397.419L635.789 399.153C636.115 399.199 636.41 399.373 636.609 399.635C636.808 399.897 636.896 400.227 636.853 400.553C636.81 400.88 636.64 401.176 636.38 401.378C636.12 401.58 635.791 401.672 635.464 401.633V401.634Z" fill="white"/>
<path d="M403.212 450.848H397.451V445.092C397.451 443.711 396.902 442.386 395.924 441.409C394.947 440.433 393.621 439.884 392.239 439.884C390.856 439.884 389.53 440.433 388.553 441.409C387.576 442.386 387.026 443.711 387.026 445.092V450.848H381.265C379.883 450.848 378.557 451.397 377.58 452.374C376.602 453.351 376.053 454.675 376.053 456.057C376.053 457.438 376.602 458.763 377.58 459.739C378.557 460.716 379.883 461.265 381.265 461.265H387.026V467.021C387.026 468.402 387.576 469.727 388.553 470.704C389.53 471.68 390.856 472.229 392.239 472.229C393.621 472.229 394.947 471.68 395.924 470.704C396.902 469.727 397.451 468.402 397.451 467.021V461.265H403.212C404.594 461.265 405.92 460.716 406.897 459.739C407.875 458.763 408.424 457.438 408.424 456.057C408.424 454.675 407.875 453.351 406.897 452.374C405.92 451.397 404.594 450.848 403.212 450.848Z" fill="white"/>
<path d="M589.774 344.318C592.807 344.318 595.266 341.861 595.266 338.83C595.266 335.799 592.807 333.342 589.774 333.342C586.74 333.342 584.281 335.799 584.281 338.83C584.281 341.861 586.74 344.318 589.774 344.318Z" fill="#090814"/>
<path d="M252.35 499.465C255.384 499.465 257.843 497.008 257.843 493.977C257.843 490.945 255.384 488.488 252.35 488.488C249.317 488.488 246.858 490.945 246.858 493.977C246.858 497.008 249.317 499.465 252.35 499.465Z" fill="#3F3D56"/>
<path d="M554.594 650.599C551.15 647.325 552.046 650.599 542.095 646.556L536.762 650.598C533.748 650.598 530.858 651.795 528.727 653.924C526.596 656.053 525.399 658.941 525.398 661.952V662.322H554.594C554.594 662.322 558.038 653.872 554.594 650.599Z" fill="#090814"/>
<defs>
<filter id="filter0_f_482_456" x="91.8454" y="492.845" width="593.396" height="438.47" filterUnits="userSpaceOnUse" color-interpolation-filters="sRGB">
<feFlood flood-opacity="0" result="BackgroundImageFix"/>
<feBlend mode="normal" in="SourceGraphic" in2="BackgroundImageFix" result="shape"/>
<feGaussianBlur stdDeviation="51.5773" result="effect1_foregroundBlur_482_456"/>
</filter>
<filter id="filter1_f_482_456" x="119.893" y="363.845" width="585.387" height="438.47" filterUnits="userSpaceOnUse" color-interpolation-filters="sRGB">
<feFlood flood-opacity="0" result="BackgroundImageFix"/>
<feBlend mode="normal" in="SourceGraphic" in2="BackgroundImageFix" result="shape"/>
<feGaussianBlur stdDeviation="51.5773" result="effect1_foregroundBlur_482_456"/>
</filter>
</defs>
</svg>
