<svg width="617" height="765" viewBox="0 0 617 765" fill="none" xmlns="http://www.w3.org/2000/svg">
<path d="M208.582 621.21C158.015 595.872 126.971 543.406 117.716 478.973C108.462 414.541 121.007 338.193 157.575 265.213C194.143 192.233 247.79 136.479 304.941 105.321C362.094 74.1625 422.705 67.6212 473.272 92.9587C523.838 118.296 554.882 170.762 564.136 235.196C573.391 299.627 560.845 375.976 524.277 448.956C487.71 521.935 434.062 577.689 376.911 608.847C319.759 640.006 259.149 646.547 208.582 621.21Z" stroke="black"/>
<path d="M164.804 599.274C114.237 573.937 83.1931 521.47 73.9383 457.037C64.684 392.606 77.2293 316.257 113.797 243.277C150.365 170.297 204.012 114.543 261.163 83.3856C318.316 52.2268 378.927 45.6856 429.494 71.0231C480.061 96.3607 511.104 148.827 520.358 213.26C529.613 277.691 517.067 354.04 480.5 427.02C443.932 500 390.285 555.754 333.134 586.911C275.981 618.07 215.371 624.612 164.804 599.274Z" stroke="black"/>
<path d="M121.026 577.339C70.4593 552.001 39.4155 499.535 30.1607 435.101C20.9064 370.67 33.4517 294.321 70.0196 221.341C106.587 148.362 160.235 92.6076 217.386 61.4499C274.539 30.2912 335.149 23.7499 385.716 49.0875C436.283 74.4251 467.326 126.891 476.581 191.324C485.835 255.756 473.29 332.104 436.722 405.084C400.154 478.064 346.507 533.818 289.356 564.976C232.203 596.134 171.593 602.676 121.026 577.339Z" stroke="black"/>
<g clip-path="url(#clip0_482_597)">
<path d="M237.35 178.914C236.893 178.999 236.461 179.187 236.087 179.464C235.686 179.761 235.339 180.125 235.063 180.54C234.762 180.987 234.529 181.475 234.372 181.99C234.204 182.531 234.117 183.094 234.115 183.66V416.082C234.12 417.208 234.448 418.31 235.06 419.255C235.338 419.686 235.684 420.069 236.086 420.388C236.456 420.684 236.887 420.896 237.348 421.009L409.507 460.755C410.196 460.921 410.913 460.941 411.611 460.812C412.238 460.694 412.83 460.431 413.338 460.043C413.839 459.656 414.24 459.153 414.507 458.579C414.798 457.944 414.945 457.252 414.938 456.554V153.498C414.943 152.792 414.796 152.093 414.507 151.449C414.238 150.857 413.838 150.333 413.338 149.918C412.834 149.503 412.244 149.206 411.611 149.049C410.922 148.881 410.205 148.86 409.507 148.987L237.35 178.914Z" fill="#090814"/>
<path d="M241.325 184.81C240.859 184.901 240.42 185.096 240.04 185.381C239.633 185.685 239.282 186.057 239.002 186.482C238.7 186.936 238.468 187.432 238.313 187.955C238.148 188.505 238.068 189.076 238.073 189.65V412.19C238.066 413.332 238.389 414.452 239.004 415.414C239.285 415.856 239.635 416.249 240.042 416.577C240.419 416.883 240.857 417.104 241.327 417.225L402.425 453.16C403.108 453.307 403.816 453.307 404.499 453.16C405.119 453.026 405.698 452.746 406.188 452.343C406.678 451.941 407.066 451.428 407.318 450.845C407.595 450.202 407.729 449.506 407.712 448.806V163.234C407.727 162.526 407.593 161.823 407.318 161.171C407.064 160.572 406.679 160.038 406.191 159.608C405.704 159.178 405.125 158.863 404.499 158.687C403.824 158.499 403.117 158.457 402.425 158.563L241.325 184.81Z" fill="white"/>
<path d="M261.893 215.119C261.676 215.145 261.467 215.22 261.284 215.339C261.091 215.464 260.922 215.623 260.787 215.809C260.642 216.008 260.529 216.229 260.453 216.463C260.371 216.711 260.329 216.971 260.328 217.232V226.141C260.328 226.395 260.37 226.647 260.453 226.886C260.526 227.101 260.64 227.299 260.787 227.472C260.922 227.632 261.092 227.759 261.283 227.844C261.475 227.928 261.684 227.963 261.892 227.944L370.406 218.368C370.701 218.34 370.987 218.253 371.247 218.112C371.508 217.971 371.741 217.784 371.935 217.56C372.134 217.333 372.291 217.073 372.401 216.792C372.513 216.503 372.572 216.197 372.573 215.888V205.365C372.574 205.067 372.516 204.771 372.402 204.496C372.296 204.24 372.137 204.009 371.937 203.818C371.74 203.631 371.505 203.489 371.248 203.402C370.977 203.31 370.689 203.279 370.405 203.311L261.893 215.119Z" fill="#2B3078"/>
<path d="M261.309 244.717C261.254 244.721 261.202 244.737 261.155 244.765C261.107 244.794 261.064 244.832 261.031 244.877C260.994 244.925 260.966 244.979 260.947 245.036C260.926 245.098 260.916 245.162 260.916 245.227V248.709C260.916 248.772 260.926 248.835 260.946 248.895C260.965 248.95 260.993 249 261.03 249.045C261.064 249.086 261.106 249.119 261.154 249.142C261.202 249.165 261.255 249.176 261.308 249.173L371.759 243.184C371.833 243.18 371.904 243.161 371.97 243.128C372.035 243.095 372.094 243.05 372.142 242.995C372.244 242.882 372.301 242.735 372.301 242.582V238.477C372.301 238.402 372.287 238.327 372.258 238.257C372.231 238.192 372.192 238.132 372.142 238.083C372.092 238.033 372.032 237.994 371.966 237.969C371.9 237.944 371.829 237.933 371.758 237.938L261.309 244.717Z" fill="#CCCCCC"/>
<path d="M261.309 256.04C261.254 256.043 261.202 256.058 261.155 256.086C261.106 256.114 261.064 256.151 261.03 256.195C260.994 256.243 260.966 256.296 260.947 256.353C260.926 256.414 260.916 256.479 260.916 256.543V260.024C260.916 260.087 260.926 260.15 260.947 260.21C260.965 260.266 260.993 260.318 261.03 260.364C261.064 260.405 261.107 260.439 261.155 260.463C261.202 260.487 261.255 260.498 261.309 260.496L371.76 256.515C371.833 256.513 371.905 256.495 371.971 256.464C372.036 256.432 372.094 256.388 372.143 256.335C372.245 256.222 372.301 256.076 372.302 255.925V251.821C372.302 251.745 372.287 251.67 372.259 251.6C372.232 251.534 372.193 251.474 372.143 251.423C372.094 251.373 372.035 251.334 371.971 251.307C371.904 251.28 371.832 251.268 371.76 251.271L261.309 256.04Z" fill="#CCCCCC"/>
<path d="M261.309 267.364C261.255 267.365 261.202 267.38 261.155 267.406C261.107 267.433 261.064 267.47 261.03 267.513C260.994 267.56 260.965 267.613 260.947 267.67C260.926 267.731 260.916 267.795 260.916 267.859V271.341C260.916 271.404 260.927 271.467 260.947 271.527C260.966 271.583 260.994 271.635 261.03 271.681C261.064 271.724 261.107 271.758 261.155 271.784C261.202 271.808 261.255 271.821 261.309 271.82L371.758 269.851C371.831 269.848 371.903 269.831 371.969 269.799C372.033 269.769 372.092 269.727 372.141 269.675C372.191 269.621 372.23 269.557 372.257 269.489C372.285 269.417 372.299 269.342 372.299 269.265V265.162C372.299 265.086 372.285 265.011 372.257 264.94C372.23 264.874 372.191 264.813 372.141 264.761C372.092 264.71 372.034 264.669 371.969 264.64C371.902 264.613 371.83 264.6 371.758 264.602L261.309 267.364Z" fill="#CCCCCC"/>
<path d="M261.111 289.98C261.057 289.979 261.004 289.992 260.957 290.016C260.909 290.042 260.866 290.076 260.833 290.119C260.796 290.165 260.769 290.217 260.751 290.273C260.73 290.333 260.72 290.396 260.72 290.459V293.936C260.72 294.001 260.73 294.065 260.751 294.126C260.77 294.181 260.798 294.234 260.834 294.28C260.868 294.323 260.91 294.36 260.959 294.387C261.006 294.414 261.06 294.429 261.115 294.43L371.491 296.479C371.563 296.48 371.635 296.466 371.701 296.438C371.766 296.41 371.825 296.37 371.873 296.319C371.923 296.267 371.963 296.206 371.989 296.139C372.018 296.068 372.032 295.993 372.032 295.917V291.815C372.032 291.739 372.018 291.663 371.989 291.592C371.963 291.523 371.923 291.46 371.873 291.405C371.825 291.353 371.766 291.311 371.701 291.281C371.635 291.251 371.564 291.234 371.491 291.233L261.111 289.98Z" fill="#CCCCCC"/>
<path d="M261.111 301.3C261.057 301.298 261.004 301.31 260.957 301.334C260.908 301.359 260.866 301.394 260.832 301.436C260.796 301.482 260.767 301.534 260.749 301.59C260.729 301.65 260.719 301.713 260.72 301.776V305.254C260.72 305.318 260.73 305.382 260.751 305.444C260.769 305.5 260.798 305.554 260.834 305.601C260.868 305.645 260.91 305.682 260.959 305.709C261.006 305.736 261.058 305.752 261.112 305.754L371.488 309.808C371.56 309.811 371.632 309.798 371.699 309.771C371.763 309.744 371.822 309.705 371.871 309.655C371.921 309.604 371.96 309.544 371.987 309.477C372.015 309.407 372.029 309.332 372.029 309.256V305.152C372.029 305.076 372.015 305 371.987 304.928C371.96 304.86 371.921 304.796 371.871 304.742C371.822 304.689 371.764 304.645 371.699 304.614C371.633 304.582 371.561 304.565 371.488 304.563L261.111 301.3Z" fill="#CCCCCC"/>
<path d="M261.111 312.619C261.058 312.617 261.006 312.629 260.958 312.652C260.911 312.675 260.868 312.708 260.834 312.749C260.798 312.794 260.769 312.845 260.751 312.899C260.73 312.959 260.719 313.022 260.719 313.086V316.563C260.719 316.628 260.73 316.692 260.751 316.754C260.769 316.811 260.798 316.865 260.834 316.912C260.868 316.957 260.91 316.994 260.958 317.023C261.006 317.053 261.059 317.071 261.115 317.075L371.491 323.139C371.561 323.143 371.632 323.132 371.698 323.107C371.764 323.082 371.824 323.042 371.874 322.992C371.924 322.942 371.963 322.882 371.99 322.816C372.018 322.746 372.033 322.672 372.033 322.596V318.493C372.032 318.341 371.975 318.195 371.874 318.083C371.825 318.029 371.767 317.985 371.702 317.953C371.636 317.92 371.565 317.901 371.491 317.897L261.111 312.619Z" fill="#CCCCCC"/>
<path d="M261.111 323.995C261.058 323.991 261.005 324.001 260.957 324.023C260.909 324.046 260.866 324.078 260.833 324.119C260.796 324.163 260.767 324.213 260.749 324.268C260.728 324.328 260.718 324.39 260.718 324.454V327.931C260.718 327.996 260.728 328.061 260.749 328.122C260.768 328.18 260.796 328.234 260.833 328.283C260.866 328.328 260.909 328.366 260.957 328.396C261.003 328.425 261.056 328.443 261.111 328.447L371.487 336.528C371.558 336.533 371.63 336.523 371.697 336.498C371.761 336.474 371.82 336.437 371.869 336.388C371.919 336.339 371.958 336.28 371.985 336.215C372.013 336.145 372.028 336.071 372.027 335.995V331.892C372.027 331.814 372.013 331.738 371.985 331.666C371.958 331.597 371.919 331.533 371.869 331.477C371.82 331.422 371.762 331.376 371.697 331.343C371.632 331.309 371.56 331.289 371.487 331.284L261.111 323.995Z" fill="#CCCCCC"/>
<path d="M261.111 335.313C261.058 335.309 261.005 335.317 260.957 335.339C260.909 335.361 260.866 335.393 260.833 335.434C260.796 335.477 260.768 335.526 260.749 335.579C260.728 335.639 260.718 335.702 260.718 335.766V339.243C260.718 339.308 260.728 339.373 260.749 339.435C260.768 339.493 260.796 339.548 260.832 339.597C260.866 339.643 260.908 339.682 260.956 339.712C261.003 339.741 261.055 339.759 261.11 339.764L371.486 349.857C371.557 349.863 371.629 349.855 371.696 349.831C371.761 349.808 371.819 349.772 371.868 349.724C371.918 349.676 371.958 349.617 371.984 349.553C372.013 349.483 372.027 349.409 372.027 349.334V345.23C372.027 345.152 372.012 345.076 371.984 345.003C371.957 344.933 371.918 344.868 371.868 344.811C371.82 344.756 371.762 344.709 371.696 344.674C371.631 344.639 371.56 344.618 371.486 344.612L261.111 335.313Z" fill="#CCCCCC"/>
<path d="M261.111 358.011C261.059 358.005 261.006 358.012 260.957 358.031C260.909 358.05 260.867 358.08 260.833 358.118C260.795 358.161 260.767 358.21 260.749 358.264C260.728 358.324 260.717 358.387 260.718 358.45V361.928C260.718 361.993 260.728 362.058 260.749 362.12C260.768 362.179 260.796 362.235 260.833 362.285C260.866 362.332 260.909 362.373 260.957 362.405C261.003 362.436 261.056 362.456 261.111 362.463L371.487 376.582C371.557 376.591 371.629 376.585 371.697 376.564C371.761 376.543 371.82 376.508 371.869 376.462C371.919 376.415 371.959 376.358 371.985 376.294C372.014 376.226 372.028 376.152 372.027 376.077V371.975C372.027 371.897 372.013 371.82 371.985 371.747C371.958 371.676 371.919 371.61 371.869 371.552C371.821 371.494 371.762 371.446 371.697 371.408C371.632 371.371 371.561 371.347 371.487 371.337L261.111 358.011Z" fill="#CCCCCC"/>
<path d="M261.111 369.331C261.059 369.323 261.006 369.329 260.957 369.348C260.909 369.367 260.867 369.397 260.833 369.435C260.796 369.476 260.767 369.525 260.749 369.577C260.728 369.637 260.717 369.7 260.718 369.763V373.241C260.718 373.306 260.728 373.371 260.748 373.434C260.767 373.493 260.796 373.549 260.832 373.6C260.866 373.649 260.908 373.691 260.956 373.724C261.002 373.757 261.055 373.778 261.11 373.786L371.486 389.915C371.556 389.926 371.628 389.921 371.696 389.901C371.76 389.881 371.819 389.848 371.868 389.803C371.919 389.757 371.958 389.701 371.984 389.638C372.013 389.569 372.027 389.496 372.027 389.421V385.315C372.027 385.237 372.012 385.16 371.984 385.087C371.957 385.015 371.918 384.948 371.868 384.889C371.82 384.831 371.762 384.781 371.696 384.742C371.632 384.704 371.56 384.679 371.486 384.668L261.111 369.331Z" fill="#CCCCCC"/>
<path d="M261.111 380.65C261.059 380.642 261.006 380.646 260.957 380.665C260.909 380.682 260.867 380.711 260.833 380.749C260.796 380.79 260.767 380.838 260.749 380.89C260.728 380.95 260.717 381.013 260.718 381.076V384.557C260.718 384.623 260.728 384.688 260.749 384.751C260.768 384.811 260.796 384.868 260.833 384.919C260.867 384.968 260.909 385.01 260.957 385.044C261.003 385.075 261.055 385.097 261.111 385.106L371.487 403.243C371.557 403.255 371.629 403.251 371.697 403.233C371.761 403.215 371.82 403.183 371.869 403.138C371.919 403.093 371.959 403.037 371.985 402.975C372.014 402.907 372.028 402.833 372.027 402.759V398.655C372.027 398.576 372.013 398.498 371.985 398.425C371.958 398.352 371.918 398.284 371.869 398.224C371.821 398.165 371.762 398.115 371.697 398.075C371.633 398.035 371.561 398.009 371.487 397.996L261.111 380.65Z" fill="#CCCCCC"/>
<path d="M441.579 305.888H488.048V305.228H442.238V274.568H441.579V305.888Z" fill="#090814"/>
<path d="M451.013 365.255H450.354V333.936H496.823V334.595H451.013V365.255Z" fill="#090814"/>
<path d="M512.436 282.43H465.967V251.11H466.626V281.767H512.436V282.43Z" fill="#090814"/>
<path d="M456.72 237.937C456.47 237.937 456.231 238.036 456.054 238.212C455.878 238.389 455.779 238.628 455.779 238.878C455.779 239.128 455.878 239.367 456.054 239.544C456.231 239.72 456.47 239.819 456.72 239.819H475.808C476.057 239.819 476.297 239.72 476.473 239.544C476.65 239.367 476.749 239.128 476.749 238.878C476.749 238.628 476.65 238.389 476.473 238.212C476.297 238.036 476.057 237.937 475.808 237.937H456.72Z" fill="#3F3D56"/>
<path d="M456.72 243.482C456.47 243.482 456.231 243.581 456.054 243.758C455.878 243.935 455.779 244.174 455.779 244.424C455.779 244.673 455.878 244.913 456.054 245.089C456.231 245.266 456.47 245.365 456.72 245.365H475.808C476.057 245.365 476.297 245.266 476.473 245.089C476.65 244.913 476.749 244.673 476.749 244.424C476.749 244.174 476.65 243.935 476.473 243.758C476.297 243.581 476.057 243.482 475.808 243.482H456.72Z" fill="#3F3D56"/>
<path d="M432.237 270.353C431.987 270.353 431.748 270.254 431.571 270.077C431.395 269.901 431.296 269.661 431.296 269.412C431.296 269.162 431.395 268.923 431.571 268.746C431.748 268.569 431.987 268.47 432.237 268.47H451.327C451.45 268.47 451.573 268.495 451.687 268.542C451.801 268.589 451.905 268.659 451.992 268.746C452.079 268.833 452.149 268.937 452.196 269.051C452.243 269.166 452.268 269.288 452.268 269.412C452.268 269.535 452.243 269.658 452.196 269.772C452.149 269.886 452.079 269.99 451.992 270.077C451.905 270.165 451.801 270.234 451.687 270.281C451.573 270.329 451.45 270.353 451.327 270.353H432.237Z" fill="#2F2E41"/>
<path d="M432.237 264.807C431.987 264.807 431.748 264.708 431.571 264.531C431.395 264.354 431.296 264.115 431.296 263.865C431.296 263.616 431.395 263.376 431.571 263.2C431.748 263.023 431.987 262.924 432.237 262.924H451.327C451.45 262.924 451.573 262.948 451.687 262.996C451.801 263.043 451.905 263.112 451.992 263.2C452.079 263.287 452.149 263.391 452.196 263.505C452.243 263.619 452.268 263.742 452.268 263.865C452.268 263.989 452.243 264.111 452.196 264.226C452.149 264.34 452.079 264.444 451.992 264.531C451.905 264.618 451.801 264.688 451.687 264.735C451.573 264.782 451.45 264.807 451.327 264.807H432.237Z" fill="#2F2E41"/>
<path d="M523.641 348.686C516.667 348.686 509.85 346.618 504.051 342.742C498.252 338.867 493.733 333.358 491.064 326.914C488.395 320.469 487.697 313.377 489.058 306.536C490.418 299.694 493.776 293.41 498.708 288.477C503.639 283.545 509.922 280.186 516.762 278.825C523.602 277.464 530.691 278.162 537.135 280.832C543.578 283.501 549.085 288.022 552.959 293.822C556.834 299.622 558.902 306.441 558.902 313.417C558.902 322.771 555.187 331.742 548.574 338.356C541.961 344.97 532.993 348.686 523.641 348.686ZM523.641 278.8C516.797 278.8 510.106 280.83 504.415 284.633C498.724 288.436 494.289 293.842 491.669 300.166C489.05 306.491 488.364 313.451 489.699 320.165C491.034 326.879 494.33 333.047 499.169 337.888C504.009 342.729 510.175 346.026 516.887 347.361C523.6 348.697 530.558 348.012 536.881 345.392C543.204 342.772 548.609 338.336 552.411 332.644C556.214 326.952 558.243 320.259 558.243 313.413C558.243 304.234 554.598 295.43 548.109 288.939C541.62 282.448 532.818 278.801 523.641 278.8Z" fill="#090814"/>
<path d="M509.469 286.383C511.654 286.383 513.424 284.611 513.424 282.427C513.424 280.242 511.654 278.471 509.469 278.471C507.285 278.471 505.514 280.242 505.514 282.427C505.514 284.611 507.285 286.383 509.469 286.383Z" fill="#2B3078"/>
<path d="M495.834 338.551C498.019 338.551 499.789 336.78 499.789 334.595C499.789 332.41 498.019 330.639 495.834 330.639C493.65 330.639 491.879 332.41 491.879 334.595C491.879 336.78 493.65 338.551 495.834 338.551Z" fill="#2B3078"/>
<path d="M489.366 309.841C491.55 309.841 493.321 308.069 493.321 305.885C493.321 303.7 491.55 301.929 489.366 301.929C487.182 301.929 485.411 303.7 485.411 305.885C485.411 308.069 487.182 309.841 489.366 309.841Z" fill="#2B3078"/>
<path d="M441.012 369.467C440.886 369.464 440.761 369.486 440.644 369.532C440.527 369.578 440.421 369.646 440.331 369.734C440.241 369.822 440.169 369.927 440.12 370.042C440.072 370.158 440.046 370.283 440.046 370.408C440.046 370.534 440.072 370.658 440.12 370.774C440.169 370.89 440.241 370.995 440.331 371.082C440.421 371.17 440.527 371.239 440.644 371.285C440.761 371.331 440.886 371.352 441.012 371.349H460.101C460.227 371.352 460.352 371.331 460.469 371.285C460.586 371.239 460.693 371.17 460.783 371.082C460.872 370.995 460.944 370.89 460.993 370.774C461.042 370.658 461.067 370.534 461.067 370.408C461.067 370.283 461.042 370.158 460.993 370.042C460.944 369.927 460.872 369.822 460.783 369.734C460.693 369.646 460.586 369.578 460.469 369.532C460.352 369.486 460.227 369.464 460.101 369.467H441.012Z" fill="#2F2E41"/>
<path d="M441.012 375.013C440.762 375.013 440.523 375.113 440.346 375.289C440.17 375.466 440.071 375.705 440.071 375.955C440.071 376.204 440.17 376.444 440.346 376.62C440.523 376.797 440.762 376.896 441.012 376.896H460.102C460.227 376.899 460.352 376.877 460.469 376.832C460.586 376.786 460.693 376.717 460.783 376.629C460.872 376.542 460.944 376.437 460.993 376.321C461.042 376.205 461.067 376.081 461.067 375.955C461.067 375.829 461.042 375.705 460.993 375.589C460.944 375.474 460.872 375.369 460.783 375.281C460.693 375.193 460.586 375.125 460.469 375.079C460.352 375.033 460.227 375.011 460.102 375.014L441.012 375.013Z" fill="#2F2E41"/>
<path d="M174.847 500.905L61.9045 500.634V500.013L174.847 500.284V500.905Z" fill="#D6D6E3"/>
<path d="M153.387 385.846L147.729 374.691L141.218 377.995L146.876 389.151C146.57 390.121 146.46 391.142 146.553 392.155C146.645 393.167 146.938 394.152 147.414 395.05C149.178 398.527 152.939 400.162 155.817 398.702C158.695 397.242 159.596 393.237 157.832 389.76C157.388 388.845 156.767 388.027 156.004 387.354C155.241 386.681 154.351 386.167 153.387 385.841V385.846Z" fill="#ED9DA0"/>
<path d="M114.982 335.413L143.57 388.858L154.749 382.878L129.707 328.114" fill="#2B3078"/>
<path d="M130.598 347.939L138.39 384.136L104.433 385.322C104.433 385.322 108.882 360.183 107.303 355.838L130.598 347.939Z" fill="#ED9DA0"/>
<path d="M145.021 482.643H137.085V493.104H145.021V482.643Z" fill="#ED9DA0"/>
<path d="M135.479 499.299C135.18 499.089 134.928 498.818 134.74 498.503C134.552 498.189 134.433 497.838 134.391 497.475C134.402 497.017 134.507 496.567 134.701 496.152C134.894 495.737 135.171 495.367 135.514 495.064C135.534 494.821 135.781 491.814 136.331 491.276C136.129 490.642 136.176 489.955 136.463 489.355C136.581 489.188 136.736 489.05 136.916 488.951C137.096 488.853 137.296 488.798 137.5 488.789H137.521L137.531 488.807C137.545 488.831 138.883 491.158 140.898 491.362C142.053 491.481 143.21 490.885 144.335 489.595C144.375 489.5 144.693 487.929 144.899 486.889L144.907 486.848L155.882 492.618L162.297 494.394C162.664 494.495 162.991 494.706 163.234 494.998C163.478 495.29 163.626 495.65 163.66 496.028C163.694 496.407 163.611 496.787 163.423 497.118C163.235 497.448 162.951 497.714 162.608 497.878L159.498 499.373C158.19 500 156.759 500.326 155.309 500.328H138.441C137.366 500.335 136.321 499.973 135.479 499.303V499.299Z" fill="#090814"/>
<path d="M81.8266 487.915L89.4463 490.133L92.3678 480.087L84.7481 477.87L81.8266 487.915Z" fill="#ED9DA0"/>
<path d="M78.554 493.415C78.3246 493.129 78.1581 492.798 78.0657 492.444C77.9732 492.089 77.9569 491.719 78.0177 491.358C78.156 490.921 78.383 490.518 78.6845 490.174C78.986 489.83 79.3554 489.552 79.7695 489.357C79.8558 489.129 80.9329 486.311 81.6114 485.947C81.5942 485.282 81.8318 484.635 82.2757 484.139C82.4357 484.011 82.6229 483.922 82.8229 483.878C83.0229 483.834 83.2303 483.837 83.4291 483.886L83.4489 483.89L83.4539 483.91C83.4601 483.936 84.0964 486.544 85.9731 487.304C87.0495 487.738 88.3252 487.49 89.7661 486.567C89.8313 486.488 90.5731 485.068 91.0629 484.126L91.0821 484.086L100.01 492.696L105.674 496.194C105.998 496.394 106.253 496.687 106.405 497.035C106.557 497.384 106.6 497.77 106.527 498.143C106.453 498.516 106.268 498.858 105.996 499.123C105.724 499.388 105.377 499.563 105.002 499.626L101.598 500.193C100.167 500.429 98.7018 500.343 97.3086 499.94L81.1129 495.228C80.0787 494.933 79.1764 494.293 78.5559 493.415H78.554Z" fill="#090814"/>
<path d="M100.763 366.916L134.72 367.707C134.72 367.707 155.355 427.205 154.566 483.684H126.24L124.557 418.119L119.637 486.231L82.3066 484.08L100.763 366.916Z" fill="#090814"/>
<path d="M133.243 300.464C133.243 298.233 132.665 296.039 131.565 294.097C130.464 292.156 128.879 290.533 126.965 289.388C125.05 288.242 122.871 287.612 120.64 287.561C118.41 287.509 116.204 288.037 114.238 289.093C112.273 290.149 110.614 291.696 109.425 293.585C108.236 295.473 107.557 297.638 107.454 299.867C107.351 302.096 107.828 304.314 108.838 306.304C109.849 308.294 111.357 309.988 113.217 311.22C112.15 313.88 110.73 316.385 108.996 318.667L121.712 329.264L124.205 312.778C126.825 311.955 129.115 310.316 130.741 308.101C132.366 305.887 133.243 303.211 133.243 300.463V300.464Z" fill="#ED9DA0"/>
<path d="M124.175 318.968L109.565 315.413L100.2 327.407C97.9701 331.958 97.618 337.204 99.2201 342.012L106.986 365.318C106.986 365.318 130.678 364.923 135.811 351.098L137.283 348.032C138.27 345.974 138.681 343.688 138.472 341.415C138.263 339.143 137.442 336.97 136.097 335.127L124.175 318.968Z" fill="#2B3078"/>
<path d="M108.624 396.009L108.895 383.503L101.595 383.345L101.324 395.85C100.596 396.562 100.017 397.41 99.6202 398.348C99.2237 399.285 99.0178 400.292 99.0145 401.31C98.9301 405.208 101.476 408.425 104.702 408.495C107.927 408.565 110.611 405.46 110.694 401.561C110.735 400.545 110.572 399.53 110.217 398.577C109.861 397.624 109.32 396.751 108.624 396.009Z" fill="#ED9DA0"/>
<path d="M98.5459 333.419V394.034H111.223L114.97 333.931" fill="#2B3078"/>
<path d="M113.538 302.372C113.538 302.372 123.699 298.998 121.196 295.173C121.196 295.173 131.981 297.052 132.259 295.173C132.538 293.294 132.259 281.253 117.648 283.202C103.037 285.151 104.984 297.399 104.984 297.399C104.984 297.399 106.052 309.24 113.913 311.676C113.911 311.677 107.832 299.937 113.538 302.372Z" fill="#090814"/>
<path d="M110.335 290.12C110.335 290.12 107.334 287.952 103.834 288.62C102.608 288.853 101.312 289.751 100.144 290.818C97.8116 292.991 96.0197 295.679 94.9112 298.668C91.8513 306.691 85.4293 326.758 96.6643 329.218C110.75 332.304 111.625 302.5 111.625 302.5L110.335 290.12Z" fill="#090814"/>
<path d="M173.384 382.496C173.482 382.582 173.561 382.687 173.618 382.804C173.675 382.921 173.709 383.048 173.717 383.178C173.725 383.308 173.707 383.438 173.664 383.561C173.622 383.684 173.555 383.798 173.469 383.895L171.221 386.442L171.342 386.563L169.812 388.289L169.698 388.167L161.648 397.29C161.372 397.602 160.993 397.803 160.58 397.856C160.167 397.909 159.749 397.809 159.404 397.576L152.957 393.227C152.801 393.121 152.669 392.982 152.572 392.82C152.475 392.657 152.414 392.476 152.394 392.288C152.375 392.1 152.396 391.91 152.458 391.731C152.519 391.552 152.619 391.389 152.75 391.252L164.779 378.735C165.031 378.473 165.366 378.304 165.727 378.257C166.088 378.209 166.454 378.286 166.766 378.474L173.233 382.39C173.286 382.421 173.337 382.458 173.384 382.499L173.384 382.496Z" fill="#3F3D56"/>
<path d="M167.639 380.03L171.037 382.087C171.098 382.124 171.17 382.14 171.241 382.132C171.312 382.124 171.379 382.093 171.43 382.044C171.489 381.987 171.564 381.952 171.645 381.943C171.726 381.935 171.807 381.953 171.876 381.995L172.592 382.428C172.69 382.488 172.773 382.567 172.837 382.662C172.9 382.757 172.942 382.865 172.959 382.978C172.977 383.091 172.969 383.206 172.937 383.316C172.904 383.425 172.848 383.526 172.773 383.612L161.111 396.847C160.966 397.011 160.766 397.117 160.548 397.143C160.331 397.169 160.111 397.114 159.932 396.988L153.569 392.547C153.489 392.49 153.421 392.417 153.371 392.331C153.321 392.246 153.291 392.151 153.281 392.053C153.271 391.955 153.282 391.855 153.314 391.762C153.346 391.668 153.398 391.583 153.466 391.511L165.296 379.037C165.47 378.854 165.702 378.735 165.953 378.702C166.204 378.668 166.459 378.721 166.675 378.852L167.428 379.307C167.366 379.432 167.353 379.576 167.392 379.71C167.431 379.844 167.519 379.958 167.639 380.03Z" fill="#2B3078"/>
<path d="M217.488 349.863H170.579C170.026 349.864 169.495 350.084 169.104 350.475C168.713 350.867 168.493 351.397 168.492 351.951V370.743C168.492 371.297 168.713 371.828 169.104 372.219C169.495 372.611 170.026 372.831 170.579 372.831H173.895V379.587H174.019C175.354 379.585 176.634 379.054 177.578 378.11C178.521 377.166 179.052 375.886 179.054 374.551V372.831H217.489C218.043 372.831 218.573 372.611 218.965 372.219C219.356 371.828 219.576 371.297 219.577 370.743V351.951C219.576 351.397 219.356 350.866 218.964 350.475C218.572 350.083 218.042 349.863 217.488 349.863ZM219.33 370.743C219.329 371.232 219.135 371.7 218.79 372.045C218.444 372.391 217.976 372.585 217.488 372.586H178.807V374.551C178.805 375.8 178.316 376.998 177.445 377.892C176.574 378.787 175.388 379.306 174.14 379.34V372.586H170.579C170.091 372.585 169.623 372.391 169.278 372.045C168.932 371.7 168.738 371.232 168.738 370.743V351.951C168.738 351.463 168.932 350.994 169.278 350.649C169.623 350.304 170.091 350.109 170.579 350.109H217.487C217.976 350.109 218.444 350.304 218.789 350.649C219.134 350.994 219.329 351.463 219.329 351.951L219.33 370.743Z" fill="#3F3D56"/>
<path d="M208.217 355.239H179.852C179.486 355.212 179.124 355.326 178.84 355.557C178.555 355.787 178.369 356.118 178.319 356.481C178.318 356.498 178.318 356.515 178.319 356.532C178.354 356.906 178.535 357.251 178.822 357.493C179.109 357.735 179.48 357.854 179.854 357.826H208.22C208.408 357.858 208.601 357.848 208.785 357.798C208.969 357.748 209.14 357.658 209.286 357.535C209.432 357.412 209.55 357.258 209.63 357.085C209.711 356.911 209.752 356.723 209.752 356.532C209.752 356.341 209.711 356.152 209.63 355.979C209.55 355.805 209.432 355.652 209.286 355.529C209.14 355.405 208.969 355.316 208.785 355.265C208.601 355.215 208.408 355.206 208.22 355.238L208.217 355.239Z" fill="#2B3078"/>
<path d="M208.217 360.397H179.852C179.486 360.37 179.124 360.484 178.84 360.715C178.555 360.945 178.369 361.276 178.319 361.639C178.318 361.656 178.318 361.673 178.319 361.69C178.354 362.064 178.535 362.409 178.822 362.651C179.109 362.893 179.48 363.013 179.854 362.984H208.22C208.408 363.016 208.601 363.007 208.785 362.956C208.969 362.906 209.14 362.816 209.286 362.693C209.432 362.57 209.55 362.416 209.63 362.243C209.711 362.07 209.752 361.881 209.752 361.69C209.752 361.499 209.711 361.31 209.63 361.137C209.55 360.964 209.432 360.81 209.286 360.687C209.14 360.564 208.969 360.474 208.785 360.423C208.601 360.373 208.408 360.364 208.22 360.396L208.217 360.397Z" fill="#2B3078"/>
<path d="M208.217 365.556H179.852C179.486 365.529 179.124 365.643 178.84 365.874C178.555 366.104 178.369 366.435 178.319 366.798C178.318 366.815 178.318 366.832 178.319 366.849C178.354 367.223 178.535 367.568 178.822 367.81C179.109 368.052 179.48 368.171 179.854 368.143H208.22C208.408 368.175 208.601 368.165 208.785 368.115C208.969 368.065 209.14 367.975 209.286 367.852C209.432 367.729 209.55 367.575 209.63 367.402C209.711 367.228 209.752 367.04 209.752 366.849C209.752 366.658 209.711 366.469 209.63 366.296C209.55 366.122 209.432 365.969 209.286 365.846C209.14 365.722 208.969 365.633 208.785 365.582C208.601 365.532 208.408 365.523 208.22 365.555L208.217 365.556Z" fill="#2B3078"/>
<path d="M524.777 335.313C537.024 335.313 546.953 325.383 546.953 313.132C546.953 300.882 537.024 290.951 524.777 290.951C512.529 290.951 502.601 300.882 502.601 313.132C502.601 325.383 512.529 335.313 524.777 335.313Z" fill="#E6E6E6"/>
<path d="M513.55 317.799C511.18 317.529 509.345 315.258 509.142 312.956C508.903 310.215 510.499 307.611 512.688 306.073C515.046 304.546 517.782 303.706 520.59 303.645C525.975 303.377 531.266 305.122 535.436 308.54C537.504 310.258 539.435 312.447 540.167 315.09C540.518 316.227 540.542 317.44 540.237 318.591C539.931 319.741 539.309 320.782 538.44 321.595C537.983 321.989 537.45 322.284 536.873 322.462C536.297 322.639 535.69 322.695 535.091 322.626C533.663 322.397 532.319 321.799 531.193 320.892C528.967 319.274 527.14 317.019 524.426 316.173C522.44 315.552 519.858 316.098 518.643 317.897C518.368 318.308 518.189 318.777 518.121 319.268C518.096 319.372 518.111 319.483 518.164 319.576C518.218 319.67 518.304 319.74 518.407 319.772C518.512 319.8 518.623 319.786 518.718 319.732C518.812 319.679 518.882 319.59 518.911 319.486C519.23 317.221 522.015 316.375 523.968 316.893C526.817 317.647 528.729 320.189 531.066 321.805C532.276 322.707 533.701 323.276 535.2 323.455C536.499 323.557 537.789 323.161 538.807 322.347C539.758 321.534 540.475 320.481 540.883 319.297C541.291 318.113 541.374 316.842 541.125 315.615C540.614 312.788 538.711 310.363 536.623 308.487C532.391 304.723 526.895 302.692 521.233 302.8C518.293 302.784 515.4 303.539 512.843 304.989C511.61 305.7 510.559 306.688 509.774 307.875C508.989 309.062 508.491 310.416 508.32 311.829C508.21 313.105 508.482 314.386 509.101 315.507C509.721 316.629 510.66 317.54 511.799 318.126C512.35 318.387 512.94 318.554 513.546 318.619C514.072 318.678 514.069 317.858 513.55 317.799Z" fill="#3F3D56"/>
</g>
<g filter="url(#filter0_f_482_597)">
<ellipse cx="332.618" cy="525.068" rx="198.714" ry="107.054" transform="rotate(150 332.618 525.068)" fill="#313682"/>
</g>
<defs>
<filter id="filter0_f_482_597" x="49.1921" y="286.019" width="566.853" height="478.098" filterUnits="userSpaceOnUse" color-interpolation-filters="sRGB">
<feFlood flood-opacity="0" result="BackgroundImageFix"/>
<feBlend mode="normal" in="SourceGraphic" in2="BackgroundImageFix" result="shape"/>
<feGaussianBlur stdDeviation="51.5773" result="effect1_foregroundBlur_482_597"/>
</filter>
<clipPath id="clip0_482_597">
<rect width="497" height="352" fill="white" transform="translate(61.9045 148.905)"/>
</clipPath>
</defs>
</svg>
