<svg width="553" height="516" viewBox="0 0 553 516" fill="none" xmlns="http://www.w3.org/2000/svg">
<g clip-path="url(#clip0_703_18)">
<g filter="url(#filter0_f_703_18)">
<ellipse cx="252.574" cy="276.342" rx="149.574" ry="78.9132" fill="#FEF8A8"/>
</g>
<g filter="url(#filter1_f_703_18)">
<ellipse cx="283.52" cy="196.913" rx="146.479" ry="78.9132" fill="#313682"/>
</g>
<path d="M372.633 365.415H174.325C157.656 365.415 144.095 351.854 144.095 335.185V136.877C144.095 120.208 157.656 106.647 174.325 106.647H372.633C389.302 106.647 402.863 120.208 402.863 136.877V335.185C402.863 351.854 389.302 365.415 372.633 365.415ZM174.325 111.484C160.301 111.484 148.932 122.853 148.932 136.877V335.185C148.932 349.209 160.301 360.578 174.325 360.578H313.235C360.064 360.578 398.026 322.616 398.026 275.787V136.877C398.026 122.853 386.657 111.484 372.633 111.484L174.325 111.484Z" fill="#383F91"/>
<path d="M195.704 132.106C186.319 132.106 178.683 139.742 178.683 149.127V175.769C178.683 185.155 186.319 192.79 195.704 192.79H222.346C231.732 192.79 239.367 185.155 239.367 175.769V149.127C239.367 139.742 231.732 132.106 222.346 132.106H195.704Z" fill="#F2F2F2"/>
<path d="M195.704 207.106C186.319 207.106 178.683 214.742 178.683 224.127V250.769C178.683 260.155 186.319 267.79 195.704 267.79H222.346C231.732 267.79 239.367 260.155 239.367 250.769V224.127C239.367 214.742 231.732 207.106 222.346 207.106H195.704Z" fill="#F2F2F2"/>
<path d="M195.704 282.106C186.319 282.106 178.683 289.742 178.683 299.127V325.769C178.683 335.155 186.319 342.79 195.704 342.79H222.346C231.732 342.79 239.367 335.155 239.367 325.769V299.127C239.367 289.742 231.732 282.106 222.346 282.106H195.704Z" fill="#F2F2F2"/>
<path d="M213.372 67.1062C201.545 67.1062 191.925 76.727 191.925 88.5533V122.123C191.925 133.949 201.545 143.57 213.372 143.57H246.941C258.767 143.57 268.388 133.949 268.388 122.123V88.5533C268.388 76.727 258.767 67.1062 246.941 67.1062H213.372Z" fill="#313682"/>
<path d="M323.89 160.919C312.064 160.919 302.443 170.539 302.443 182.366V215.935C302.443 227.762 312.064 237.382 323.89 237.382H357.46C369.286 237.382 378.907 227.762 378.907 215.935V182.366C378.907 170.539 369.286 160.919 357.46 160.919H323.89Z" fill="#313682"/>
<path d="M275.842 498.808L269.023 498.751L266.004 471.833L276.069 471.918L275.842 498.808Z" fill="#A0616A"/>
<path d="M253.998 509.653C253.983 511.331 255.336 512.713 257.021 512.728L270.58 512.841L272.954 508.03L273.826 512.866L278.942 512.912L277.65 495.664L275.87 495.546L268.61 495.045L266.267 494.888L266.226 499.768L255.334 507.156C254.506 507.719 254.006 508.652 253.998 509.653Z" fill="#2F2E41"/>
<path d="M310.54 498.808L303.721 498.751L300.702 471.833L310.767 471.918L310.54 498.808Z" fill="#A0616A"/>
<path d="M288.696 509.653C288.681 511.331 290.034 512.713 291.719 512.728L305.278 512.841L307.652 508.03L308.523 512.866L313.64 512.912L312.348 495.664L310.568 495.546L303.307 495.045L300.965 494.888L300.924 499.768L290.032 507.156C289.203 507.719 288.704 508.652 288.696 509.653Z" fill="#2F2E41"/>
<path d="M249.081 281.178L276.724 282.051L302.913 287.871C302.913 287.871 300.294 291.072 309.024 299.801C309.024 299.801 320.663 320.17 312.516 339.957L309.024 419.105C309.024 419.105 319.205 474.899 311.426 492.656L301.145 493.298L283.749 419.749L275.27 340.539L271.196 418.523C271.196 418.523 286.781 472.049 276.939 493.298L265.805 492.656L246.753 418.523C246.753 418.523 238.606 332.974 239.77 316.678C240.934 300.383 249.081 281.178 249.081 281.178Z" fill="#2F2E41"/>
<path d="M341.914 156.113C338.135 157.091 335.865 160.948 336.844 164.727C337.292 166.459 338.348 167.867 339.721 168.798L339.721 168.808L339.185 181.792L349.121 186.391L349.914 166.409L349.845 166.411C350.707 164.876 351.004 163.022 350.528 161.183C349.55 157.405 345.693 155.134 341.914 156.113Z" fill="#A0616A"/>
<path d="M286.378 202.455C284.291 200.386 283.08 197.581 283.034 194.53C282.973 190.438 285.024 186.724 288.52 184.595C292.546 182.143 297.58 182.391 301.345 185.226L332.548 208.719L338.108 174.875L350.044 178.718L347.196 222.788C346.997 225.87 345.255 228.586 342.536 230.052C339.816 231.518 336.591 231.481 333.905 229.954L288.813 204.299C287.907 203.783 287.091 203.162 286.378 202.455Z" fill="#2B3078"/>
<path d="M238.799 137.182C240.794 140.538 239.691 144.875 236.335 146.869C234.798 147.783 233.056 148.04 231.426 147.734L231.419 147.742L222.658 157.34L212.364 153.61L225.869 138.862L225.916 138.912C226.385 137.215 227.479 135.689 229.112 134.718C232.467 132.723 236.805 133.827 238.799 137.182Z" fill="#A0616A"/>
<path d="M242.584 208.787L192.498 195.258C189.516 194.453 187.2 192.208 186.301 189.252C185.402 186.297 186.077 183.142 188.105 180.812L217.111 147.511L228.293 153.186L208.413 181.135L247.112 186.42C251.782 187.057 255.532 190.426 256.664 195.001C257.648 198.974 256.489 203.055 253.565 205.919C251.385 208.053 248.55 209.193 245.611 209.192C244.607 209.192 243.59 209.059 242.584 208.787Z" fill="#2B3078"/>
<path d="M313.989 292.822L243.951 296.035C242.027 293.114 242.548 288.722 245.242 283.221C255.413 262.454 247.689 223.167 242.492 202.71C241.034 196.97 244.948 191.264 250.841 190.674L257.445 190.014L263.549 171.38H284.928L293.797 181.513L308.849 190.657C306.109 218.877 294.435 258.727 311.066 278.712C314.703 283.083 315.735 287.809 313.989 292.822Z" fill="#2B3078"/>
<path d="M271.519 171.81C283.019 171.81 292.342 162.487 292.342 150.987C292.342 139.486 283.019 130.163 271.519 130.163C260.018 130.163 250.695 139.486 250.695 150.987C250.695 162.487 260.018 171.81 271.519 171.81Z" fill="#A0616A"/>
<path d="M295.082 137.658C297.98 127.095 266.403 118.037 260.267 126.543C259.414 125.334 256.26 124.599 254.814 124.97C253.367 125.341 252.15 126.269 250.963 127.167C249.331 128.42 247.639 129.719 246.637 131.522C245.628 133.317 245.473 135.766 246.83 137.324C247.906 138.563 249.797 145.147 251.414 145.474C252.542 145.704 253.491 145.889 254.308 146.023C255.035 144.962 256.889 143.629 256.755 142.345C257.853 143.072 257.452 144.352 257.231 145.659C256.494 150.013 239.885 183.714 249.397 173.783C250.34 174.34 251.505 174.859 252.848 175.334C255.125 171.899 256.995 167.848 258.227 163.611L258.235 163.689C258.659 167.371 261.35 170.392 264.91 171.423C279.189 175.56 290.739 169.49 294.713 158.543C293.258 155.59 292.625 155.911 292.755 155.823C294.571 154.599 297.066 155.4 297.847 157.446C298.077 158.049 298.286 158.564 298.467 158.951C300.537 151.547 302.999 152.615 295.082 137.658Z" fill="#2F2E41"/>
<path d="M285.232 129.994L283.773 122.537C283.65 121.91 283.534 121.23 283.817 120.657C284.18 119.921 285.113 119.616 285.926 119.734C286.738 119.851 287.345 120.593 288.153 120.736C290.963 121.232 294.677 118.457 295.684 125.478C296.104 128.405 300.775 128.715 302.335 131.227C303.895 133.739 304.086 137.366 301.957 139.418C300.257 141.057 297.526 141.247 295.318 140.409C293.11 139.572 291.337 137.88 289.789 136.097C288.241 134.313 286.839 132.383 285.053 130.837" fill="#2F2E41"/>
<path d="M296.195 141.336C290.497 140.54 286.613 138.468 284.651 135.177C282.083 130.87 283.803 126.127 283.878 125.927L285.082 126.375C285.066 126.418 283.506 130.76 285.762 134.53C287.516 137.463 291.087 139.325 296.372 140.063L296.195 141.336Z" fill="#313682"/>
</g>
<defs>
<filter id="filter0_f_703_18" x="-0.154564" y="94.2744" width="505.457" height="364.136" filterUnits="userSpaceOnUse" color-interpolation-filters="sRGB">
<feFlood flood-opacity="0" result="BackgroundImageFix"/>
<feBlend mode="normal" in="SourceGraphic" in2="BackgroundImageFix" result="shape"/>
<feGaussianBlur stdDeviation="51.5773" result="effect1_foregroundBlur_703_18"/>
</filter>
<filter id="filter1_f_703_18" x="33.8862" y="14.8454" width="499.268" height="364.136" filterUnits="userSpaceOnUse" color-interpolation-filters="sRGB">
<feFlood flood-opacity="0" result="BackgroundImageFix"/>
<feBlend mode="normal" in="SourceGraphic" in2="BackgroundImageFix" result="shape"/>
<feGaussianBlur stdDeviation="51.5773" result="effect1_foregroundBlur_703_18"/>
</filter>
<clipPath id="clip0_703_18">
<rect width="552.81" height="515.459" fill="white"/>
</clipPath>
</defs>
</svg>
