<svg width="133" height="61" viewBox="0 0 133 61" fill="none" xmlns="http://www.w3.org/2000/svg">
<path d="M109.651 19.6803C111.945 19.6693 114.156 19.7922 116.36 20.4928C118.928 21.3086 121.141 22.9353 123.07 24.7799V20.7535H133V59.4H123.339L122.758 56.4059C119.919 59.2447 117.69 59.5991 113.677 60.3082C110.624 60.8476 107.193 60.5202 104.283 59.481C87.914 53.6347 87.6021 28.4424 102.941 21.232C105.021 20.2543 107.353 19.6913 109.651 19.6803ZM33.7001 20.3316C36.2553 19.6105 39.1268 19.4284 41.7518 19.8385C45.6102 20.4413 48.5057 22.2419 51.413 24.7799V20.7535H61.3436V59.4H51.413L50.9139 55.9605C48.6931 58.1811 46.9651 58.9612 43.8983 59.8814C41.8764 60.4878 39.8192 60.5206 37.7264 60.4693C35.5322 60.4157 33.2683 59.8514 31.285 58.9215C17.6508 52.5295 15.9551 31.5991 28.3329 22.9117C29.9548 21.7736 31.7921 20.8702 33.7001 20.3316ZM90.0594 29.3414C86.9734 29.3414 83.2458 29.0131 80.6678 31.0572C77.651 33.4495 77.7137 36.8594 77.7137 40.3453V59.481L67.5155 59.4V41.6871C67.5155 34.7586 66.9862 27.5664 73.4198 23.109C74.6382 22.2647 76.0404 21.6249 77.4462 21.1617C81.4849 19.8312 85.8638 19.9488 90.0594 19.9488V29.3414ZM15.1825 21.8277V59.4H4.98425V21.8277H15.1825ZM48.1825 48.3473C55.7684 41.3925 50.0445 27.0031 39.3368 28.9303C37.4085 29.2773 35.4782 30.0723 33.9794 31.3463C26.9842 37.292 30.2118 49.5346 39.3368 50.8473C40.443 51.0064 41.4467 51.1143 42.5575 50.9146C44.5951 50.5488 46.6386 49.7625 48.1825 48.3473ZM115.288 29.1373C113.88 28.8056 112.427 28.6977 110.993 28.9234C100.286 30.6101 98.4238 46.7177 108.847 50.3971C110.786 51.0816 112.75 51.1034 114.751 50.773C125.854 48.9394 126.029 31.668 115.288 29.1373Z" fill="url(#paint0_linear_482_219)"/>
<path d="M10.0938 0L13.0914 7.09606L20.1875 10.0938L13.0914 13.0914L10.0938 20.1875L7.09606 13.0914L0 10.0938L7.09606 7.09606L10.0938 0Z" fill="#535BC2"/>
<defs>
<linearGradient id="paint0_linear_482_219" x1="68.9921" y1="60.5652" x2="68.9921" y2="19.6236" gradientUnits="userSpaceOnUse">
<stop stop-color="#2B3078"/>
<stop offset="1" stop-color="#535BC2"/>
</linearGradient>
</defs>
</svg>
