<svg width="107" height="49" viewBox="0 0 107 49" fill="none" xmlns="http://www.w3.org/2000/svg">
<path d="M88.2159 15.8335C90.0612 15.8247 91.8398 15.9231 93.6134 16.4868C95.6788 17.1432 97.4591 18.4521 99.0109 19.936V16.6968H107V47.7886H99.2267L98.7599 45.3794C96.4758 47.6633 94.683 47.9486 91.4542 48.519C88.9981 48.953 86.2386 48.6899 83.8976 47.854C70.7281 43.1508 70.4768 22.8824 82.8175 17.0815C84.4906 16.295 86.3673 15.8423 88.2159 15.8335ZM27.1124 16.3579C29.1681 15.7778 31.4781 15.6305 33.59 15.9604C36.694 16.4454 39.0235 17.8942 41.3624 19.936V16.6968H49.3517V47.7886H41.3624L40.9611 45.021C39.1744 46.8075 37.7838 47.4349 35.3165 48.1753C33.6898 48.6631 32.0345 48.6902 30.3507 48.6489C28.5855 48.6057 26.7646 48.1519 25.1691 47.4038C14.2001 42.2614 12.836 25.4222 22.7941 18.4331C24.099 17.5174 25.5773 16.7912 27.1124 16.3579ZM72.4542 23.606C69.9714 23.606 66.9716 23.3412 64.8976 24.9858C62.4707 26.9105 62.5216 29.6541 62.5216 32.4585V47.854L54.3175 47.7886V33.5386C54.3175 27.9644 53.8912 22.1774 59.0675 18.5913C60.0476 17.9121 61.175 17.3975 62.3058 17.0249C65.5551 15.9544 69.0786 16.0493 72.4542 16.0493V23.606ZM12.214 17.561V47.7886H4.00989V17.561H12.214ZM38.7638 38.896C44.8666 33.3008 40.261 21.7244 31.6466 23.2749C30.0955 23.5541 28.5428 24.1935 27.337 25.2183C21.7091 30.0015 24.3056 39.8515 31.6466 40.9077C32.5364 41.0357 33.344 41.1229 34.2374 40.9624C35.8769 40.6681 37.5216 40.0347 38.7638 38.896ZM92.7501 23.4409C91.6176 23.1741 90.4497 23.0876 89.296 23.269C80.6815 24.6256 79.1831 37.5852 87.5685 40.5454C89.1286 41.0961 90.709 41.1139 92.3185 40.8481C101.252 39.373 101.392 25.4765 92.7501 23.4409Z" fill="url(#paint0_linear_482_226)"/>
<path d="M8.12054 0L10.5322 5.70887L16.2411 8.12054L10.5322 10.5322L8.12054 16.2411L5.70887 10.5322L0 8.12054L5.70887 5.70887L8.12054 0Z" fill="#535BC2"/>
<defs>
<linearGradient id="paint0_linear_482_226" x1="55.5049" y1="48.7256" x2="55.5049" y2="15.7876" gradientUnits="userSpaceOnUse">
<stop stop-color="#2B3078"/>
<stop offset="1" stop-color="#535BC2"/>
</linearGradient>
</defs>
</svg>
