<svg width="31" height="31" viewBox="0 0 31 31" fill="none" xmlns="http://www.w3.org/2000/svg">
<path d="M11.0976 10.3335H19.6872C22.9594 10.3335 25.6181 12.9922 25.6181 16.2644V24.854C25.6181 26.427 24.9932 27.9355 23.881 29.0478C22.7687 30.16 21.2601 30.7849 19.6872 30.7849H11.0976C7.82537 30.7849 5.16669 28.1262 5.16669 24.854V16.2644C5.16669 14.6914 5.79155 13.1829 6.90381 12.0706C8.01607 10.9584 9.52462 10.3335 11.0976 10.3335ZM10.8931 12.3786C9.91675 12.3786 8.98041 12.7665 8.29004 13.4568C7.59967 14.1472 7.21183 15.0836 7.21183 16.0599V25.0585C7.21183 27.0934 8.85816 28.7397 10.8931 28.7397H19.8917C20.868 28.7397 21.8044 28.3519 22.4947 27.6615C23.1851 26.9712 23.5729 26.0348 23.5729 25.0585V16.0599C23.5729 14.025 21.9266 12.3786 19.8917 12.3786H10.8931ZM20.7609 13.9125C21.0999 13.9125 21.425 14.0472 21.6647 14.2869C21.9044 14.5266 22.0391 14.8517 22.0391 15.1907C22.0391 15.5297 21.9044 15.8548 21.6647 16.0945C21.425 16.3342 21.0999 16.4689 20.7609 16.4689C20.4219 16.4689 20.0967 16.3342 19.857 16.0945C19.6173 15.8548 19.4827 15.5297 19.4827 15.1907C19.4827 14.8517 19.6173 14.5266 19.857 14.2869C20.0967 14.0472 20.4219 13.9125 20.7609 13.9125ZM15.3924 15.4463C16.7484 15.4463 18.0489 15.985 19.0077 16.9439C19.9666 17.9027 20.5052 19.2032 20.5052 20.5592C20.5052 21.9152 19.9666 23.2157 19.0077 24.1745C18.0489 25.1334 16.7484 25.672 15.3924 25.672C14.0364 25.672 12.7359 25.1334 11.7771 24.1745C10.8182 23.2157 10.2795 21.9152 10.2795 20.5592C10.2795 19.2032 10.8182 17.9027 11.7771 16.9439C12.7359 15.985 14.0364 15.4463 15.3924 15.4463ZM15.3924 17.4915C14.5788 17.4915 13.7985 17.8147 13.2232 18.39C12.6479 18.9653 12.3247 19.7456 12.3247 20.5592C12.3247 21.3728 12.6479 22.1531 13.2232 22.7284C13.7985 23.3037 14.5788 23.6269 15.3924 23.6269C16.206 23.6269 16.9863 23.3037 17.5616 22.7284C18.1369 22.1531 18.4601 21.3728 18.4601 20.5592C18.4601 19.7456 18.1369 18.9653 17.5616 18.39C16.9863 17.8147 16.206 17.4915 15.3924 17.4915Z" fill="#525AC0"/>
</svg>
